<svg width="80" height="80" viewBox="0 0 80 80" fill="none" xmlns="http://www.w3.org/2000/svg">
<path d="M5 30.3332C5 21.4658 5 17.0321 6.72572 13.6451C8.24373 10.6659 10.6659 8.24373 13.6451 6.72572C17.0321 5 21.4658 5 30.3332 5H49.6667C58.5342 5 62.968 5 66.3548 6.72572C69.334 8.24373 71.7562 10.6659 73.2743 13.6451C75 17.0321 75 21.4658 75 30.3332V49.6667C75 58.5342 75 62.968 73.2743 66.3548C71.7562 69.334 69.334 71.7562 66.3548 73.2743C62.968 75 58.5342 75 49.6667 75H30.3332C21.4658 75 17.0321 75 13.6451 73.2743C10.6659 71.7562 8.24373 69.334 6.72572 66.3548C5 62.968 5 58.5342 5 49.6667V30.3332Z" fill="#00005B"/>
<path d="M34.4732 48.9095H23.626L21.419 55.9548C21.3577 56.216 21.1171 56.401 20.8554 56.3883H15.3613C15.048 56.3883 14.9385 56.2118 15.0326 55.8585L24.4242 28.2315C24.5182 27.9428 24.6121 27.6603 24.7061 27.2908C24.8289 26.648 24.8918 25.995 24.8939 25.3403C24.867 25.1468 25.034 24.9754 25.2225 25.003H32.689C32.9077 25.003 33.0327 25.0833 33.0645 25.2438L43.7242 55.9065C43.818 56.228 43.724 56.3885 43.4425 56.3883H37.3377C37.1237 56.4125 36.9192 56.2658 36.8682 56.051L34.4732 48.9095ZM25.3165 42.9693H32.736C31.517 38.8038 30.1412 34.6933 29.0262 30.4953C27.7627 34.8498 26.596 38.8883 25.3165 42.9693Z" fill="#9999FF"/>
<path d="M51.6522 46.1892C52.0839 49.7665 55.0879 51.472 58.4142 51.3992C60.2899 51.3625 62.2944 51.0712 64.0472 50.362C64.2032 50.2342 64.2819 50.314 64.2819 50.603V55.1782C64.2967 55.4162 64.1972 55.629 64.0002 55.7562C61.8217 56.7457 59.3212 57.0442 56.9584 57.0062C49.9139 57.0062 45.0762 52.0427 45.0782 44.8212C45.0597 37.9777 49.4994 32.2042 56.3949 32.2042C62.2402 32.0527 66.2869 36.7325 66.3032 42.5577C66.3032 43.6185 66.2439 44.6832 66.1154 45.7362C66.0904 45.9532 65.9057 46.1217 65.6927 46.1217C61.0244 46.1217 56.3334 46.1892 51.6522 46.1892ZM51.6522 41.8017C54.2539 41.8017 56.8707 41.8937 59.4707 41.7777C59.8614 41.7377 60.1517 41.6635 60.1517 41.2572C60.0974 39.0977 58.2749 37.3215 56.1602 37.4042C53.6052 37.2457 51.9699 39.4027 51.6522 41.8017Z" fill="#9999FF"/>
</svg>
