<svg width="80" height="80" viewBox="0 0 80 80" fill="none" xmlns="http://www.w3.org/2000/svg">
<rect width="80" height="80" rx="40" fill="#9834EF"/>
<circle cx="39.8571" cy="40.1053" r="29.8571" stroke="white" stroke-width="2"/>
<path d="M30.594 52V29.2949H36.8303C39.6357 29.2949 42.0374 29.749 44.0354 30.6572C46.0334 31.5553 47.5673 32.8521 48.637 34.5474C49.7066 36.2427 50.2415 38.276 50.2415 40.6475C50.2415 43.0088 49.7066 45.0422 48.637 46.7476C47.5673 48.4429 46.0334 49.7446 44.0354 50.6528C42.0374 51.5509 39.6357 52 36.8303 52H30.594ZM32.592 50.2139H36.9363C39.3077 50.2139 41.331 49.8354 43.0061 49.0786C44.6913 48.3218 45.9779 47.2319 46.866 45.8091C47.754 44.3761 48.198 42.6556 48.198 40.6475C48.198 38.6292 47.754 36.9087 46.866 35.4858C45.9779 34.063 44.6913 32.9731 43.0061 32.2163C41.331 31.4595 39.3077 31.0811 36.9363 31.0811H32.592V50.2139Z" fill="white"/>
</svg>
