<svg width="80" height="80" viewBox="0 0 80 80" fill="none" xmlns="http://www.w3.org/2000/svg">
<rect width="80" height="80" rx="40" fill="white"/>
<path d="M18 54.4289C18 51.3598 19.9962 48.7941 23.0439 48.7941C24.4473 48.7941 25.4347 49.3636 26.114 50.1314V45H29.0305V59.9121H26.115V58.7935C25.4357 59.5602 24.4483 60.1094 23.0449 60.1094C19.9972 60.1094 18 57.5651 18 54.4289ZM21.005 54.4289C21.005 55.877 21.7504 57.3901 23.4609 57.3901C24.5357 57.3901 25.632 56.5766 26.114 55.7895V53.0916C25.6533 52.2781 24.5357 51.5123 23.4609 51.5123C21.7514 51.5123 21.006 52.9604 21.006 54.4289H21.005Z" fill="#171D23"/>
<path d="M33.4849 48.9914V50.3724C34.2516 49.4297 35.2828 48.8592 36.5763 48.8592C36.9692 48.8532 37.3608 48.905 37.7387 49.0128V51.8418C37.3875 51.7539 37.0268 51.7098 36.6648 51.7106C35.3265 51.7106 34.1225 52.3208 33.4849 53.3764V59.9121H30.5684V48.9914H33.4849Z" fill="#171D23"/>
<path d="M43.8563 48.7941C46.9264 48.7941 49.492 51.3598 49.492 54.4289C49.492 57.5874 46.9264 60.1307 43.8563 60.1307C43.1088 60.1299 42.3688 59.9817 41.6786 59.6946C40.9884 59.4075 40.3617 58.9872 39.8341 58.4576C39.3066 57.928 38.8887 57.2995 38.6043 56.6082C38.3199 55.9169 38.1746 55.1764 38.1768 54.4289C38.1768 51.3598 40.7211 48.7941 43.8563 48.7941ZM43.8786 57.5213C45.6542 57.5213 46.4657 55.8942 46.4657 54.4289C46.4657 53.0052 45.6522 51.4035 43.8786 51.4035C42.0584 51.4035 41.1808 53.0042 41.1808 54.4289C41.1858 55.8983 42.0584 57.5213 43.8786 57.5213Z" fill="#171D23"/>
<path d="M50.4141 48.9914H53.3306V50.1314C54.0099 49.3636 55.0187 48.7941 56.422 48.7941C59.4484 48.7941 61.4436 51.3598 61.4436 54.4289C61.4436 57.565 59.4484 60.1094 56.422 60.1094C55.0187 60.1094 54.0099 59.5826 53.3306 58.7935V63.8781H50.4141V48.9914ZM53.3306 55.7895C53.7912 56.603 54.9088 57.3901 55.9837 57.3901C57.6942 57.3901 58.4396 55.877 58.4396 54.4289C58.4396 52.9604 57.6942 51.5123 55.9837 51.5123C54.9088 51.5123 53.7912 52.3259 53.3306 53.0916V55.7895Z" fill="#171D23"/>
<path d="M65.7641 46.4257C65.7641 46.8033 65.6141 47.1654 65.3471 47.4324C65.0801 47.6994 64.718 47.8494 64.3404 47.8494H64.2519C63.8743 47.8494 63.5122 47.6994 63.2452 47.4324C62.9782 47.1654 62.8282 46.8033 62.8282 46.4257C62.8282 46.0481 62.9782 45.686 63.2452 45.419C63.5122 45.152 63.8743 45.002 64.2519 45.002H64.3404C64.718 45.002 65.0801 45.152 65.3471 45.419C65.6141 45.686 65.7641 46.0481 65.7641 46.4257ZM62.8262 48.9914H65.7427V59.9121H62.8262V48.9914Z" fill="#171D23"/>
<path d="M18 54.4289C18 51.3598 19.9962 48.7941 23.0439 48.7941C24.4473 48.7941 25.4347 49.3636 26.114 50.1314V45H29.0305V59.9121H26.115V58.7935C25.4357 59.5602 24.4483 60.1094 23.0449 60.1094C19.9972 60.1094 18 57.5651 18 54.4289ZM21.005 54.4289C21.005 55.877 21.7504 57.3901 23.4609 57.3901C24.5357 57.3901 25.632 56.5766 26.114 55.7895V53.0916C25.6533 52.2781 24.5357 51.5123 23.4609 51.5123C21.7514 51.5123 21.006 52.9604 21.006 54.4289H21.005Z" fill="#171D23"/>
<path d="M33.4849 48.9914V50.3724C34.2516 49.4297 35.2828 48.8592 36.5763 48.8592C36.9692 48.8532 37.3608 48.905 37.7387 49.0128V51.8418C37.3875 51.7539 37.0268 51.7098 36.6648 51.7106C35.3265 51.7106 34.1225 52.3208 33.4849 53.3764V59.9121H30.5684V48.9914H33.4849Z" fill="#171D23"/>
<path d="M43.8563 48.7941C46.9264 48.7941 49.492 51.3598 49.492 54.4289C49.492 57.5874 46.9264 60.1307 43.8563 60.1307C43.1088 60.1299 42.3688 59.9817 41.6786 59.6946C40.9884 59.4075 40.3617 58.9872 39.8341 58.4576C39.3066 57.928 38.8887 57.2995 38.6043 56.6082C38.3199 55.9169 38.1746 55.1764 38.1768 54.4289C38.1768 51.3598 40.7211 48.7941 43.8563 48.7941ZM43.8786 57.5213C45.6542 57.5213 46.4657 55.8942 46.4657 54.4289C46.4657 53.0052 45.6522 51.4035 43.8786 51.4035C42.0584 51.4035 41.1808 53.0042 41.1808 54.4289C41.1858 55.8983 42.0584 57.5213 43.8786 57.5213Z" fill="#171D23"/>
<path d="M50.4141 48.9914H53.3306V50.1314C54.0099 49.3636 55.0187 48.7941 56.422 48.7941C59.4484 48.7941 61.4436 51.3598 61.4436 54.4289C61.4436 57.565 59.4484 60.1094 56.422 60.1094C55.0187 60.1094 54.0099 59.5826 53.3306 58.7935V63.8781H50.4141V48.9914ZM53.3306 55.7895C53.7912 56.603 54.9088 57.3901 55.9837 57.3901C57.6942 57.3901 58.4396 55.877 58.4396 54.4289C58.4396 52.9604 57.6942 51.5123 55.9837 51.5123C54.9088 51.5123 53.7912 52.3259 53.3306 53.0916V55.7895Z" fill="#171D23"/>
<path d="M65.7641 46.4257C65.7641 46.8033 65.6141 47.1654 65.3471 47.4324C65.0801 47.6994 64.718 47.8494 64.3404 47.8494H64.2519C63.8743 47.8494 63.5122 47.6994 63.2452 47.4324C62.9782 47.1654 62.8282 46.8033 62.8282 46.4257C62.8282 46.0481 62.9782 45.686 63.2452 45.419C63.5122 45.152 63.8743 45.002 64.2519 45.002H64.3404C64.718 45.002 65.0801 45.152 65.3471 45.419C65.6141 45.686 65.7641 46.0481 65.7641 46.4257ZM62.8262 48.9914H65.7427V59.9121H62.8262V48.9914Z" fill="#171D23"/>
<path d="M41.5054 26.6098C41.5079 26.8598 41.4834 27.1094 41.4322 27.3542C41.242 28.2308 40.3797 29.1755 39.4218 28.6813C38.9184 28.4219 38.6286 27.8596 38.5137 27.3257C38.3844 26.7347 38.416 26.1198 38.6052 25.5451C38.7862 25.0092 39.1624 24.4895 39.7126 24.3543C40.0248 24.2825 40.3526 24.3339 40.6278 24.4977C41.3254 24.9034 41.5054 25.8654 41.5054 26.6098Z" fill="#FF9045"/>
<path d="M49.8052 26.6098C49.8072 26.8444 49.7895 27.0788 49.7523 27.3105C49.613 28.1352 48.9825 29.0199 48.2839 28.5552C47.9168 28.3111 47.7053 27.7803 47.6219 27.2779C47.5273 26.7208 47.5498 26.15 47.688 25.602C47.8202 25.0936 48.0947 24.6075 48.4964 24.4834C48.6106 24.4503 48.7311 24.4454 48.8476 24.4689C48.9641 24.4925 49.0732 24.5439 49.1656 24.6187C49.674 25.001 49.8052 25.9061 49.8052 26.6098Z" fill="#FF9045"/>
<path d="M27.447 18.1602C28.1642 18.1602 28.7456 17.5788 28.7456 16.8616C28.7456 16.1444 28.1642 15.563 27.447 15.563C26.7298 15.563 26.1484 16.1444 26.1484 16.8616C26.1484 17.5788 26.7298 18.1602 27.447 18.1602Z" fill="#FF9045"/>
<path d="M36.0673 18.4602L32.2426 16.2372C31.9077 16.4528 31.584 16.683 31.2715 16.9277L35.1144 19.1598C35.4142 18.9033 35.7327 18.6694 36.0673 18.4602Z" fill="#FF9045"/>
<path d="M39.8098 14C37.5875 13.9967 35.3971 14.5283 33.4235 15.5498L37.3112 17.8094C38.1004 17.4707 38.9262 17.2247 39.7721 17.0762C40.597 16.9309 41.4331 16.8588 42.2707 16.8606C46.7452 16.8606 51.2552 19.2555 51.8908 25.7851C52.4897 31.909 49.138 33.952 43.6974 34.0618C43.5388 34.0618 43.3842 34.0618 43.2256 34.0618C39.9857 34.0618 36.9563 32.9106 34.9367 30.9602C34.2869 32.3574 33.1144 33.3408 31.7415 33.5228C31.5904 33.5421 31.4383 33.5516 31.2859 33.5513C29.4463 33.5513 27.8854 32.1083 27.3128 30.1009C28.0613 31.5185 29.364 32.4591 30.8477 32.4591C33.1642 32.4612 35.0506 30.1589 35.0506 27.3217C35.0506 25.3356 34.1293 23.613 32.7808 22.7567C33.0699 21.7529 33.5694 20.8221 34.2462 20.0263L30.3178 17.7453C29.4962 18.5148 28.7721 19.3823 28.162 20.3283V17.2775C28.162 17.1157 28.0977 16.9605 27.9833 16.8461C27.8688 16.7317 27.7136 16.6674 27.5518 16.6674C27.39 16.6674 27.2348 16.7317 27.1204 16.8461C27.006 16.9605 26.9417 17.1157 26.9417 17.2775V22.7089C26.3181 24.2933 25.9986 25.981 26 27.6837C26 32.091 28.103 35.4733 31.3693 37.5244C33.4479 38.8322 36.0004 39.601 38.7837 39.7504C40.8297 39.2664 41.9056 38.3786 42.47 37.6027C41.9138 37.5611 41.3616 37.4761 40.8185 37.3485C43.0181 35.8465 44.1601 34.3994 44.1601 34.3994L46.4604 36.8705C45.9933 37.1532 45.4811 37.3537 44.9462 37.4634C44.6926 38.1486 44.3133 38.7805 43.8276 39.3264C49.4939 38.0044 53.6165 33.8533 53.6165 27.6796C53.6165 20.1259 47.4336 14 39.8098 14ZM33.6716 26.8752C33.6716 29.143 32.2419 30.9826 30.4744 30.9826C28.707 30.9826 27.2823 29.144 27.2823 26.8762C27.2823 24.6085 28.7162 22.7689 30.4744 22.7689C32.2327 22.7689 33.6716 24.6075 33.6716 26.8752Z" fill="#FF9045"/>
<path d="M40.1903 19.1446C39.9869 19.2463 39.8598 19.2585 38.9476 19.4415C37.1009 19.8127 36.4389 20.2947 35.4514 21.2323C34.9801 21.6856 34.5836 22.2107 34.2769 22.7882C34.2646 22.8152 34.2421 22.8362 34.2144 22.8466C34.1866 22.857 34.1559 22.8559 34.1289 22.8436C34.102 22.8314 34.081 22.8089 34.0706 22.7811C34.0602 22.7534 34.0612 22.7226 34.0735 22.6957C34.9308 20.0964 36.9646 18.3636 39.4133 18.0961C40.6906 17.9568 40.6031 18.9321 40.1903 19.1446Z" fill="#FF9045"/>
<path d="M41.5054 26.6098C41.5079 26.8598 41.4834 27.1094 41.4322 27.3542C41.242 28.2308 40.3797 29.1755 39.4218 28.6813C38.9184 28.4219 38.6286 27.8596 38.5137 27.3257C38.3844 26.7347 38.416 26.1198 38.6052 25.5451C38.7862 25.0092 39.1624 24.4895 39.7126 24.3543C40.0248 24.2825 40.3526 24.3339 40.6278 24.4977C41.3254 24.9034 41.5054 25.8654 41.5054 26.6098Z" fill="#FF9045"/>
<path d="M49.8052 26.6098C49.8072 26.8444 49.7895 27.0788 49.7523 27.3105C49.613 28.1352 48.9825 29.0199 48.2839 28.5552C47.9168 28.3111 47.7053 27.7803 47.6219 27.2779C47.5273 26.7208 47.5498 26.15 47.688 25.602C47.8202 25.0936 48.0947 24.6075 48.4964 24.4834C48.6106 24.4503 48.7311 24.4454 48.8476 24.4689C48.9641 24.4925 49.0732 24.5439 49.1656 24.6187C49.674 25.001 49.8052 25.9061 49.8052 26.6098Z" fill="#FF9045"/>
<path d="M27.447 18.1602C28.1642 18.1602 28.7456 17.5788 28.7456 16.8616C28.7456 16.1444 28.1642 15.563 27.447 15.563C26.7298 15.563 26.1484 16.1444 26.1484 16.8616C26.1484 17.5788 26.7298 18.1602 27.447 18.1602Z" fill="#FF9045"/>
<path d="M36.0673 18.4602L32.2426 16.2372C31.9077 16.4528 31.584 16.683 31.2715 16.9277L35.1144 19.1598C35.4142 18.9033 35.7327 18.6694 36.0673 18.4602Z" fill="#FF9045"/>
<path d="M39.8098 14C37.5875 13.9967 35.3971 14.5283 33.4235 15.5498L37.3112 17.8094C38.1004 17.4707 38.9262 17.2247 39.7721 17.0762C40.597 16.9309 41.4331 16.8588 42.2707 16.8606C46.7452 16.8606 51.2552 19.2555 51.8908 25.7851C52.4897 31.909 49.138 33.952 43.6974 34.0618C43.5388 34.0618 43.3842 34.0618 43.2256 34.0618C39.9857 34.0618 36.9563 32.9106 34.9367 30.9602C34.2869 32.3574 33.1144 33.3408 31.7415 33.5228C31.5904 33.5421 31.4383 33.5516 31.2859 33.5513C29.4463 33.5513 27.8854 32.1083 27.3128 30.1009C28.0613 31.5185 29.364 32.4591 30.8477 32.4591C33.1642 32.4612 35.0506 30.1589 35.0506 27.3217C35.0506 25.3356 34.1293 23.613 32.7808 22.7567C33.0699 21.7529 33.5694 20.8221 34.2462 20.0263L30.3178 17.7453C29.4962 18.5148 28.7721 19.3823 28.162 20.3283V17.2775C28.162 17.1157 28.0977 16.9605 27.9833 16.8461C27.8688 16.7317 27.7136 16.6674 27.5518 16.6674C27.39 16.6674 27.2348 16.7317 27.1204 16.8461C27.006 16.9605 26.9417 17.1157 26.9417 17.2775V22.7089C26.3181 24.2933 25.9986 25.981 26 27.6837C26 32.091 28.103 35.4733 31.3693 37.5244C33.4479 38.8322 36.0004 39.601 38.7837 39.7504C40.8297 39.2664 41.9056 38.3786 42.47 37.6027C41.9138 37.5611 41.3616 37.4761 40.8185 37.3485C43.0181 35.8465 44.1601 34.3994 44.1601 34.3994L46.4604 36.8705C45.9933 37.1532 45.4811 37.3537 44.9462 37.4634C44.6926 38.1486 44.3133 38.7805 43.8276 39.3264C49.4939 38.0044 53.6165 33.8533 53.6165 27.6796C53.6165 20.1259 47.4336 14 39.8098 14ZM33.6716 26.8752C33.6716 29.143 32.2419 30.9826 30.4744 30.9826C28.707 30.9826 27.2823 29.144 27.2823 26.8762C27.2823 24.6085 28.7162 22.7689 30.4744 22.7689C32.2327 22.7689 33.6716 24.6075 33.6716 26.8752Z" fill="#FF9045"/>
<path d="M40.1903 19.1446C39.9869 19.2463 39.8598 19.2585 38.9476 19.4415C37.1009 19.8127 36.4389 20.2947 35.4514 21.2323C34.9801 21.6856 34.5836 22.2107 34.2769 22.7882C34.2646 22.8152 34.2421 22.8362 34.2144 22.8466C34.1866 22.857 34.1559 22.8559 34.1289 22.8436C34.102 22.8314 34.081 22.8089 34.0706 22.7811C34.0602 22.7534 34.0612 22.7226 34.0735 22.6957C34.9308 20.0964 36.9646 18.3636 39.4133 18.0961C40.6906 17.9568 40.6031 18.9321 40.1903 19.1446Z" fill="#FF9045"/>
</svg>
