<svg width="70" height="70" viewBox="0 0 70 70" fill="none" xmlns="http://www.w3.org/2000/svg">
<rect x="10" y="13" width="54" height="45" fill="white"/>
<path d="M65.8567 0.714287H4.14244C2.24448 0.714287 0.713867 2.24492 0.713867 4.14286V65.8571C0.713867 67.7551 2.24448 69.2857 4.14244 69.2857H65.8567C67.7547 69.2857 69.2853 67.7551 69.2853 65.8571V4.14286C69.2853 2.24492 67.7547 0.714287 65.8567 0.714287ZM25.8618 50.2296H19.77V19.7704H25.8618V50.2296ZM50.2445 50.2296H31.9537V44.1378H50.2445V50.2296ZM50.2445 38.0459H31.9537V31.9541H50.2445V38.0459ZM50.2445 25.8469H31.9537V19.7551H50.2445V25.8469Z" fill="#92003B" stroke="#92003B" stroke-width="0.008"/>
</svg>
