<svg width="80" height="80" viewBox="0 0 80 80" fill="none" xmlns="http://www.w3.org/2000/svg">
<path d="M75 5H5V75H75V5Z" fill="#FFCA28"/>
<path d="M47.5 63.2198L52.6538 59.8093C53.0578 61.0783 55.6155 64.092 58.8462 64.092C62.077 64.092 63.577 62.3275 63.577 61.1575C63.577 57.9695 60.278 56.8455 58.6935 56.3058C58.435 56.2178 58.2225 56.1453 58.077 56.082C58.0023 56.0495 57.8895 56.0063 57.7448 55.951C55.9825 55.2778 49.4807 52.7938 49.4807 45.5933C49.4807 37.6625 57.1345 36.7505 58.8655 36.7505C59.9977 36.7505 65.4422 36.8893 68.1537 41.9848L63.1537 45.4745C62.0577 43.2538 60.2365 42.5203 59.1155 42.5203C56.3463 42.5203 55.7692 44.5503 55.7692 45.4745C55.7692 48.0675 58.778 49.2298 61.3182 50.211C61.983 50.4678 62.6155 50.712 63.1537 50.9665C65.923 52.275 70 54.4165 70 61.1575C70 64.534 67.168 70.0005 60.0385 70.0005C50.4615 70.0005 47.923 64.2508 47.5 63.2198Z" fill="#3E3E3E"/>
<path d="M22.5 63.8968L27.8717 60.4883C28.2925 61.7565 29.9282 64.095 32.3012 64.095C34.6745 64.095 35.8892 61.6575 35.8892 60.4883V37.5005H42.4955V60.4883C42.6025 63.659 40.844 70.0005 33.083 70.0005C25.9475 70.0005 22.9811 65.7598 22.5 63.8968Z" fill="#3E3E3E"/>
</svg>
