<svg width="80" height="80" viewBox="0 0 80 80" fill="none" xmlns="http://www.w3.org/2000/svg">
<g clip-path="url(#clip0_824_9)">
<path d="M40 80C62.0914 80 80 62.0914 80 40C80 17.9086 62.0914 0 40 0C17.9086 0 0 17.9086 0 40C0 62.0914 17.9086 80 40 80Z" fill="#13AA52"/>
<path d="M50.6925 35.1125C48.1659 23.9617 42.1948 20.2953 41.5518 18.8945C40.8487 17.9063 40.1362 16.1484 40.1362 16.1484C40.1245 16.1187 40.1057 16.0664 40.0839 16.0156C40.0112 17.0039 39.9737 17.3852 39.0393 18.382C37.5925 19.5133 30.169 25.7422 29.5651 38.4109C29.0018 50.2266 38.1003 57.2672 39.3307 58.1648L39.4706 58.2641V58.2555C39.4784 58.3148 39.8612 61.068 40.13 63.9852H41.094C41.3202 61.9231 41.6593 59.875 42.1097 57.85L42.1878 57.7992C42.7382 57.4046 43.2629 56.9753 43.7589 56.5141L43.8151 56.4633C46.4307 54.0469 51.1331 48.4578 51.087 39.5469C51.0773 38.0604 50.9453 36.5773 50.6925 35.1125ZM40.0276 51.4937C40.0276 51.4937 40.0276 34.9219 40.5745 34.925C41.0011 34.925 41.5534 56.3008 41.5534 56.3008C40.794 56.2094 40.0276 52.7828 40.0276 51.4937Z" fill="white"/>
</g>
<defs>
<clipPath id="clip0_824_9">
<rect width="80" height="80" fill="white"/>
</clipPath>
</defs>
</svg>
