<svg width="80" height="80" viewBox="0 0 80 80" fill="none" xmlns="http://www.w3.org/2000/svg">
<g clip-path="url(#clip0_824_58)">
<path d="M24.4878 57.0577H22.322C22.2454 53.402 22.0345 49.9651 21.6896 46.7446H21.6704L18.3729 57.0577H16.7239L13.4461 46.7446H13.4273C13.1841 49.8366 13.0309 53.2743 12.9673 57.0577H10.9932C11.1204 52.457 11.4401 48.1437 11.9512 44.1176H14.6355L17.7598 53.6259H17.779L20.9225 44.1176H23.4909C24.0534 48.8334 24.3857 53.1471 24.4878 57.0577ZM33.8806 47.5105C32.9988 52.2958 31.8353 55.7729 30.3914 57.9433C29.2665 59.614 28.0339 60.4502 26.6917 60.4502C26.3339 60.4502 25.8924 60.3422 25.3692 60.128V58.9741C25.6249 59.0109 25.925 59.0319 26.2699 59.0319C26.8968 59.0319 27.4007 58.8594 27.7849 58.5137C28.2444 58.0927 28.4742 57.6194 28.4742 57.0958C28.4742 56.7367 28.2951 56.0026 27.9377 54.8911L25.5609 47.5101H27.6887L29.3945 53.0303C29.7779 54.2838 29.9378 55.1589 29.8737 55.6574C30.8066 53.1659 31.4582 50.4493 31.8295 47.5097H33.8806V47.5105Z" fill="#5D87A1"/>
<path d="M62.7103 57.0577H56.5581V44.1176H58.6277V55.4648H62.7103V57.0577ZM54.9477 57.3704L52.5688 56.1964C52.7797 56.0231 52.9815 55.8356 53.1631 55.6184C54.1742 54.4307 54.6786 52.6742 54.6786 50.3476C54.6786 46.0666 52.9986 43.9251 49.6375 43.9251C47.9894 43.9251 46.7037 44.4683 45.7842 45.5552C44.7739 46.7438 44.2696 48.494 44.2696 50.808C44.2696 53.0826 44.7166 54.7513 45.611 55.8097C46.4292 56.7685 47.6625 57.2486 49.3119 57.2486C49.9271 57.2486 50.4917 57.1732 51.0061 57.0213L54.1031 58.8243L54.9477 57.3704ZM47.2415 54.4684C46.7175 53.6255 46.4555 52.272 46.4555 50.4058C46.4555 47.1476 47.4453 45.5167 49.427 45.5167C50.4628 45.5167 51.222 45.9067 51.7075 46.6852C52.2306 47.5293 52.4939 48.8707 52.4939 50.7109C52.4939 53.9958 51.5033 55.6385 49.5228 55.6385C48.4866 55.6389 47.7274 55.2501 47.2415 54.4684ZM43.3677 53.471C43.3677 54.5684 42.9651 55.4686 42.1607 56.1738C41.3555 56.8761 40.2757 57.2281 38.9226 57.2281C37.657 57.2281 36.4299 56.8238 35.2422 56.0194L35.7984 54.9082C36.8204 55.4201 37.7458 55.6745 38.5765 55.6745C39.3562 55.6745 39.9656 55.5017 40.4075 55.1589C40.8491 54.8149 41.1123 54.3323 41.1123 53.7221C41.1123 52.9533 40.5762 52.2962 39.5927 51.7459C38.6857 51.2479 36.8719 50.2066 36.8719 50.2066C35.8888 49.4901 35.3966 48.7209 35.3966 47.4536C35.3966 46.4048 35.7637 45.5581 36.4982 44.914C37.2335 44.2674 38.1823 43.9452 39.3453 43.9452C40.5465 43.9452 41.6384 44.267 42.6219 44.904L42.123 46.0156C41.2818 45.6581 40.4515 45.4794 39.6324 45.4794C38.9691 45.4794 38.4568 45.6389 38.1007 45.9591C37.7416 46.278 37.5202 46.686 37.5202 47.1866C37.5202 47.9516 38.0676 48.6171 39.0779 49.1783C39.997 49.6772 41.856 50.7364 41.856 50.7364C42.8642 51.4517 43.3677 52.2138 43.3677 53.471Z" fill="#F8981D"/>
<path d="M65.309 39.7834C64.0576 39.7516 63.0888 39.8776 62.2756 40.2216C62.0408 40.3154 61.6675 40.3154 61.6348 40.6121C61.7617 40.7376 61.7763 40.9402 61.8864 41.1135C62.0739 41.4261 62.4007 41.8467 62.6991 42.066C63.0268 42.3171 63.3558 42.5657 63.7006 42.7846C64.3087 43.1609 64.998 43.3797 65.5907 43.7547C65.9359 43.9728 66.2791 44.2549 66.6248 44.4896C66.7947 44.6148 66.9036 44.8178 67.1241 44.896V44.8483C67.0136 44.7077 66.9822 44.5043 66.8738 44.3478L66.4043 43.8949C65.9506 43.2856 65.3869 42.7536 64.7787 42.3167C64.2782 41.9718 63.1834 41.5031 62.9804 40.9264L62.9486 40.8946C63.2926 40.8624 63.7006 40.7376 64.0275 40.6418C64.5594 40.5016 65.0445 40.5334 65.5902 40.3932C65.8414 40.3304 66.0904 40.2517 66.3423 40.1743V40.0333C66.0594 39.7516 65.8577 39.3775 65.5601 39.1113C64.7641 38.4237 63.8869 37.7511 62.9804 37.1882C62.4949 36.8747 61.8705 36.673 61.3536 36.4064C61.1674 36.3122 60.8535 36.2658 60.7438 36.1093C60.4634 35.7652 60.3056 35.3124 60.1022 34.9052C59.6502 34.046 59.2112 33.0926 58.8212 32.184C58.5391 31.5746 58.3675 30.9661 58.0235 30.4024C56.4122 27.7448 54.6623 26.1352 51.973 24.5552C51.395 24.2263 50.7074 24.0861 49.9729 23.9137L48.7998 23.8517C48.5495 23.7421 48.2988 23.4445 48.0803 23.3039C47.188 22.7414 44.8908 21.5223 44.2346 23.1319C43.8119 24.1493 44.8598 25.1495 45.2198 25.6656C45.4855 26.0238 45.83 26.4315 46.0158 26.8383C46.1258 27.104 46.1568 27.3861 46.2669 27.6669C46.5172 28.355 46.7511 29.1204 47.0801 29.7624C47.2517 30.0897 47.4387 30.4337 47.658 30.7301C47.7836 30.9033 48.0021 30.9799 48.0498 31.2624C47.8317 31.5738 47.8146 32.0438 47.6894 32.4347C47.1269 34.2012 47.3467 36.3897 48.1439 37.6879C48.3934 38.0788 48.9885 38.9393 49.7845 38.6095C50.4893 38.3282 50.3332 37.4372 50.5358 36.6558C50.5822 36.4671 50.5517 36.3432 50.6454 36.2193V36.2499C50.8635 36.6872 51.0836 37.1087 51.2857 37.5473C51.7708 38.3127 52.6154 39.1104 53.3189 39.6407C53.6935 39.9236 53.9902 40.4074 54.4594 40.5803V40.5334H54.4284C54.3334 40.3932 54.1944 40.3304 54.0697 40.2216C53.7876 39.9399 53.4754 39.5959 53.2565 39.2837C52.6011 38.4078 52.0211 37.438 51.5063 36.4374C51.2544 35.9519 51.0371 35.4212 50.8342 34.9366C50.7396 34.7495 50.7396 34.4674 50.5826 34.3732C50.3474 34.7168 50.0047 35.0144 49.8331 35.4354C49.5355 36.1088 49.5045 36.9371 49.3941 37.7984L49.3325 37.8285C48.8345 37.7034 48.6612 37.1882 48.4721 36.7508C48.0037 35.6401 47.9251 33.8572 48.3314 32.5757C48.4403 32.248 48.9111 31.2159 48.7232 30.9037C48.629 30.6045 48.316 30.4342 48.1444 30.1985C47.9426 29.9022 47.7217 29.5272 47.581 29.1983C47.206 28.3232 47.0173 27.3535 46.6134 26.4788C46.4247 26.0711 46.097 25.6493 45.8316 25.2738C45.5336 24.852 45.2059 24.5548 44.9703 24.0547C44.8925 23.8827 44.7832 23.6014 44.9084 23.4144C44.9389 23.2888 45.0025 23.2419 45.1273 23.2106C45.3298 23.0394 45.9086 23.257 46.1116 23.3512C46.6913 23.5855 47.1759 23.8044 47.6597 24.1325C47.8786 24.2895 48.1134 24.5866 48.3942 24.6649H48.7232C49.2225 24.7737 49.7854 24.695 50.2554 24.8365C51.0836 25.1027 51.834 25.4931 52.507 25.9146C54.5548 27.2133 56.2435 29.0585 57.3835 31.2624C57.5706 31.6215 57.6501 31.9504 57.8209 32.325C58.1503 33.0917 58.5575 33.8735 58.8843 34.6239C59.2129 35.3584 59.5259 36.1084 59.9951 36.7186C60.229 37.0467 61.169 37.2187 61.5905 37.3908C61.9023 37.531 62.3878 37.6557 62.669 37.8277C63.2009 38.1554 63.7308 38.5316 64.2309 38.892C64.4799 39.0795 65.2626 39.4704 65.309 39.7834ZM49.361 26.1967C49.1451 26.1944 48.93 26.2209 48.7211 26.2754V26.3067H48.7512C48.8772 26.5566 49.0961 26.7299 49.2522 26.9479C49.3781 27.1986 49.4874 27.4472 49.6108 27.6975L49.641 27.6665C49.8615 27.5104 49.9712 27.2601 49.9712 26.8847C49.8762 26.7742 49.8615 26.6662 49.7824 26.5566C49.6904 26.4001 49.4874 26.3222 49.361 26.1967Z" fill="#5D87A1"/>
<path d="M66.7976 57.0556H67.1216V55.4703H66.6357L66.2393 56.5521L65.8087 55.4703H65.3408V57.0556H65.6467V55.8495H65.6639L66.115 57.0556H66.3482L66.7976 55.8495V57.0556ZM64.1882 57.0556H64.5309V55.739H64.9796V55.4699H63.7207V55.739H64.1873L64.1882 57.0556Z" fill="#F8981D"/>
</g>
<defs>
<clipPath id="clip0_824_58">
<rect width="80" height="80" fill="white"/>
</clipPath>
</defs>
</svg>
