<svg width="80" height="80" viewBox="0 0 80 80" fill="none" xmlns="http://www.w3.org/2000/svg">
<path d="M42.9313 5.7468C41.1567 4.74882 38.8432 4.7533 37.0672 5.7468C28.1722 10.6557 19.277 15.566 10.3804 20.4726C8.64922 21.3834 7.48159 23.2424 7.50022 25.172V54.832C7.48772 56.7992 8.71554 58.6762 10.4914 59.5745C13.0468 60.934 15.5295 62.4315 18.1311 63.7005C21.1363 65.1772 24.8961 65.5037 27.938 63.9637C30.4072 62.6875 31.504 59.8487 31.5007 57.24C31.5207 47.4515 31.504 37.6627 31.5085 27.874C31.5672 27.439 31.2405 26.974 30.766 26.9845C29.6292 26.9665 28.491 26.974 27.3542 26.9815C26.9247 26.941 26.5055 27.2977 26.538 27.7295C26.5227 37.455 26.541 47.1835 26.5287 56.9105C26.5535 58.256 25.6445 59.549 24.3478 60.0035C21.353 61.0532 12.8049 55.503 12.8049 55.503C12.4912 55.3577 12.292 55.0175 12.3228 54.6795C12.3228 44.894 12.3243 35.1082 12.3228 25.3242C12.2797 24.9298 12.5228 24.5745 12.885 24.4134C21.7508 19.5335 30.612 14.6413 39.4777 9.7584C39.7857 9.55287 40.215 9.5535 40.5222 9.7599C49.388 14.6413 58.2508 19.529 67.118 24.4092C67.4815 24.57 67.7143 24.9312 67.6773 25.3242C67.6758 35.1082 67.6803 44.894 67.6743 54.6782C67.7005 55.0245 67.5215 55.36 67.1982 55.512C58.4152 60.3655 49.5322 65.0625 40.8287 70.057C40.449 70.2747 40.0187 70.5215 39.5932 70.2815C37.3045 69.0155 35.0435 67.7002 32.7622 66.422C32.5142 66.2672 32.1985 66.2007 31.9397 66.374C30.917 66.913 29.955 67.3495 28.7805 67.8145C27.131 68.4675 27.3945 68.7345 28.8822 69.6012C31.55 71.111 34.2222 72.6147 36.89 74.126C38.6462 75.222 41.006 75.3 42.8187 74.2872C51.7153 69.3845 60.609 64.476 69.5073 59.5732C71.2783 58.67 72.5123 56.8005 72.4998 54.8317V25.172C72.517 23.2816 71.394 21.4557 69.715 20.5315C60.789 15.5987 51.8588 10.6766 42.9313 5.7468Z" fill="#8CC84B"/>
<path d="M56.3547 28.0155C52.8629 26.1475 48.7089 26.048 44.8287 26.2923C42.0254 26.5693 39.0772 27.3428 37.0349 29.3523C34.9402 31.3723 34.4842 34.6343 35.4792 37.2713C36.1922 39.1348 37.9869 40.3465 39.8429 40.9875C42.2337 41.8315 44.7447 42.0925 47.2564 42.3535C49.5474 42.5915 51.8392 42.8298 54.0412 43.5105C54.9407 43.8085 55.9882 44.2645 56.2637 45.2433C56.5182 46.4023 56.2392 47.7495 55.2982 48.5548C52.3092 50.9205 43.9947 50.558 41.0414 48.696C39.8474 47.9028 39.3329 46.4985 39.1237 45.1603C39.1004 44.7433 38.7647 44.3608 38.3119 44.3925C37.1782 44.379 36.0444 44.382 34.9107 44.391C34.5152 44.3578 34.1039 44.6393 34.0822 45.043C33.8492 51.1723 39.4784 53.8443 44.7597 54.4325C47.7769 54.72 50.8604 54.7035 53.8317 54.056C56.0652 53.5475 58.3047 52.611 59.8422 50.8908C61.7382 48.8 62.1109 45.6873 61.2607 43.083C60.6107 41.1398 58.7529 39.8933 56.8539 39.252C54.2714 38.3665 51.2109 37.8905 48.8719 37.6678C45.4722 37.344 41.4322 37.4763 40.4699 35.2423C40.0862 34.0725 40.4127 32.62 41.4877 31.9005C44.3319 29.9713 50.1207 30.2275 53.0662 31.6688C54.4187 32.346 55.2024 33.737 55.5259 35.1413C55.5859 35.5538 55.8634 35.9843 56.3409 35.9663C57.4669 35.9888 58.5929 35.9723 59.7187 35.9738C60.1054 36.0008 60.5289 35.7825 60.6044 35.3865C60.5567 32.4515 59.0579 29.447 56.3547 28.0155Z" fill="#8CC84B"/>
</svg>
