<svg width="80" height="80" viewBox="0 0 80 80" fill="none" xmlns="http://www.w3.org/2000/svg">
<path d="M5 30.3332C5 21.4658 5 17.0321 6.72572 13.6451C8.24373 10.6659 10.6659 8.24373 13.6451 6.72572C17.0321 5 21.4658 5 30.3332 5H49.6667C58.5342 5 62.968 5 66.3548 6.72572C69.334 8.24373 71.7562 10.6659 73.2743 13.6451C75 17.0321 75 21.4658 75 30.3332V49.6667C75 58.5342 75 62.968 73.2743 66.3548C71.7562 69.334 69.334 71.7562 66.3548 73.2743C62.968 75 58.5342 75 49.6667 75H30.3332C21.4658 75 17.0321 75 13.6451 73.2743C10.6659 71.7562 8.24373 69.334 6.72572 66.3548C5 62.968 5 58.5342 5 49.6667V30.3332Z" fill="#001E36"/>
<path d="M20 56.2905V25.5085C20 25.2992 20.0875 25.1795 20.2917 25.1795C23.3057 25.1795 26.3185 25 29.3333 25C34.2255 25 39.5225 26.6727 41.3793 31.7905C41.8168 33.047 42.05 34.3333 42.05 35.6795C42.05 38.2522 41.4668 40.376 40.3 42.0512C37.041 46.7307 31.3925 46.658 26.3293 46.658V56.2607C26.3688 56.545 26.1265 56.6795 25.8917 56.6795H20.35C20.1167 56.6795 20 56.5597 20 56.2905ZM26.3582 30.953V41.0042C28.366 41.1512 30.4667 41.1673 32.3957 40.5258C34.5255 39.9113 35.6918 38.068 35.6918 35.859C35.7508 33.9768 34.7253 32.1707 32.9792 31.4915C31.0735 30.699 28.4155 30.6515 26.3582 30.953Z" fill="#31A8FF"/>
<path d="M60.2416 39.0185C59.3591 38.5533 58.4191 38.213 57.4473 38.007C56.1988 37.7133 51.2743 36.6843 51.2723 39.2593C51.3161 40.6968 53.5981 41.401 54.6063 41.8118C58.1461 43.027 62.1516 45.1993 62.0728 49.566C62.1811 55.002 56.9141 57.1753 52.3993 57.1758C50.0491 57.2 47.6006 56.836 45.4496 55.827C45.2441 55.7183 45.1121 55.486 45.1208 55.249V50.0475C45.0976 49.839 45.3216 49.6568 45.4966 49.8068C47.6041 51.0813 50.1021 51.7003 52.5403 51.7333C53.6166 51.7333 55.7496 51.629 55.7336 50.0475C55.7336 48.53 53.1818 47.8323 52.1646 47.4468C50.6901 46.9205 49.2921 46.1913 48.0088 45.2795C46.2153 44.0003 45.0903 41.9493 45.1208 39.6928C45.1103 34.5743 49.9586 32.2768 54.3248 32.2758C56.3658 32.2588 58.5578 32.41 60.4578 33.239C60.7311 33.3193 60.7876 33.6073 60.7866 33.865V38.7295C60.8038 39.0315 60.4686 39.1343 60.2416 39.0185Z" fill="#31A8FF"/>
</svg>
