<svg width="80" height="80" viewBox="0 0 80 80" fill="none" xmlns="http://www.w3.org/2000/svg">
<path d="M36.2149 50.9525C36.4129 53.5615 36.3744 56.183 36.0999 58.785C36.0883 59.1507 35.9809 59.507 35.7882 59.8181C35.5956 60.1292 35.3246 60.3842 35.0024 60.5575C32.9249 62.1 25.9624 62.47 25.0949 59.1925C24.7749 59.18 25.0299 58.12 24.7249 58.16C24.1159 58.11 23.5272 57.9176 23.0061 57.5985C22.485 57.2793 22.0462 56.8423 21.7249 56.3225C21.7374 52.7375 22.1324 39.805 15.7249 43.2875C14.3325 44.0635 13.2883 45.3411 12.8049 46.86C12.3732 48.1852 12.1702 49.5742 12.2049 50.9675C12.1549 52.7525 12.5999 54.705 12.6649 56.8475C12.6899 57.805 12.8424 58.0475 12.1299 58.8625C10.9824 60.175 8.97989 59.0675 7.89739 57.625C7.43959 56.8985 7.18811 56.061 7.16989 55.2025C6.30894 45.8378 7.15602 36.3945 9.66989 27.3325C10.5874 24.2575 10.9074 23.8125 13.8274 23.1225C17.1499 22.3917 20.5668 22.1892 23.9524 22.5225C26.5799 21.6675 32.8149 17.0375 35.5049 20.7125C39.5865 19.8063 43.8082 19.7265 47.9211 20.4779C52.034 21.2293 55.9549 22.7966 59.4524 25.0875C62.9949 25.3556 66.55 25.4199 70.0999 25.28C70.5999 24.96 71.1849 24.6175 71.6949 24.3225C72.0692 24.069 72.4897 23.8915 72.9324 23.8C73.5074 23.71 74.2574 23.685 74.4324 24.4C74.5846 25.1338 74.6359 25.8849 74.5849 26.6325C74.5675 27.0832 74.3998 27.5151 74.1085 27.8595C73.8172 28.2038 73.419 28.4407 72.9774 28.5325C71.9794 28.3687 71.0118 28.0551 70.1074 27.6025C66.8574 27.6925 64.8574 27.5125 61.6074 27.6025C62.1299 28.1625 62.1074 28.5325 62.4874 29.2725C63.4215 31.7307 63.7334 34.3817 63.3953 36.9895C63.0573 39.5974 62.0798 42.0812 60.5499 44.22C60.3199 47.945 60.5999 51.7075 60.6274 55.445C60.6399 56.7325 60.7299 57.9575 59.5174 58.8125C58.448 59.4536 57.2458 59.8411 56.0033 59.9451C54.7608 60.0491 53.511 59.8669 52.3499 59.4125C51.717 59.0493 51.152 58.5789 50.6799 58.0225C50.2648 58.068 49.8465 58.0764 49.4299 58.0475C48.7216 57.8495 48.1095 57.4008 47.7074 56.785C47.4769 56.3638 47.2805 55.9249 47.1199 55.4725C47.1199 53.7225 47.0549 53.0375 47.0549 51.29C43.4507 51.9351 39.7522 51.8313 36.1899 50.985L36.2149 50.9525Z" fill="#CCCCCC"/>
<path d="M30.2374 62.0975C29.2048 62.1129 28.1768 61.9574 27.1949 61.6375C26.6498 61.4912 26.1464 61.2197 25.7245 60.8448C25.3027 60.4698 24.9741 60.0017 24.7649 59.4775C24.5827 59.2505 24.4933 58.9628 24.5149 58.6725V58.56C23.8795 58.4647 23.2718 58.2345 22.7328 57.8848C22.1937 57.5351 21.7358 57.074 21.3899 56.5325L21.3299 56.435V55.785C21.3524 52.83 21.4099 44.9775 18.7449 43.38C18.2964 43.1621 17.797 43.0702 17.3003 43.1142C16.8035 43.1583 16.3281 43.3366 15.9249 43.63C14.6113 44.3619 13.6275 45.5685 13.1749 47.0025C12.7627 48.2843 12.57 49.6265 12.6049 50.9725C12.605 51.9763 12.676 52.9788 12.8174 53.9725C12.9249 54.8875 13.0349 55.8375 13.0674 56.835C13.0674 56.9825 13.0674 57.11 13.0849 57.225C13.1418 57.5707 13.1122 57.9252 12.9988 58.2567C12.8854 58.5883 12.6917 58.8866 12.4349 59.125C12.2318 59.3648 11.9762 59.5545 11.6878 59.6794C11.3995 59.8043 11.0862 59.861 10.7724 59.845C10.1317 59.7565 9.51681 59.5345 8.96732 59.1935C8.41783 58.8524 7.94602 58.3998 7.58239 57.865C7.06967 57.0817 6.79046 56.1686 6.77739 55.2325C5.90537 45.8186 6.75937 36.3246 9.29739 27.2175C10.2349 24.08 10.6474 23.4675 13.7449 22.735C17.082 22.0006 20.5134 21.7922 23.9149 22.1175C24.6626 21.8263 25.393 21.4925 26.1024 21.1175C29.1824 19.5775 33.3774 17.485 35.6799 20.2825C39.7608 19.4019 43.9759 19.3391 48.0812 20.0977C52.1866 20.8564 56.1007 22.4215 59.5974 24.7025C63.0585 24.9627 66.5318 25.0228 69.9999 24.8825C70.4999 24.575 71.0299 24.255 71.5149 23.975L71.6549 23.895C72.0297 23.6489 72.4494 23.479 72.8899 23.395C73.9999 23.2225 74.6399 23.5275 74.8324 24.2975C74.9927 25.069 75.0474 25.8588 74.9949 26.645C74.9698 27.1913 74.7608 27.713 74.4018 28.1256C74.0428 28.5381 73.555 28.8172 73.0174 28.9175H72.9524L72.8899 28.9C72.6774 28.845 72.4624 28.795 72.2399 28.745C71.4598 28.6115 70.7045 28.3603 69.9999 28C68.4174 28.04 67.1124 28.0175 65.8524 28C64.7699 27.9825 63.6574 27.9625 62.3674 27.9825C62.4474 28.14 62.5049 28.2925 62.5674 28.4475C62.6486 28.666 62.742 28.8796 62.8474 29.0875C63.8172 31.5993 64.1511 34.3119 63.8191 36.9839C63.4872 39.6559 62.4998 42.2043 60.9449 44.4025C60.8049 46.8175 60.8774 49.295 60.9449 51.6925C60.9824 52.92 61.0199 54.1925 61.0274 55.4425V55.6575C61.1478 56.2997 61.0922 56.9625 60.8664 57.5756C60.6406 58.1887 60.253 58.7293 59.7449 59.14C58.6219 59.8237 57.3555 60.2376 56.0455 60.3491C54.7354 60.4606 53.4173 60.2666 52.1949 59.7825C51.6567 59.5161 51.1773 59.1446 50.7849 58.69C50.6974 58.6 50.6099 58.51 50.5199 58.425C50.3974 58.425 50.2699 58.44 50.1574 58.4525C49.8836 58.4956 49.6044 58.4905 49.3324 58.4375C48.5283 58.215 47.8325 57.7076 47.3749 57.01C47.199 56.7262 47.0556 56.4234 46.9474 56.1075C46.8899 55.955 46.8299 55.8 46.7574 55.6375L46.7224 55.56V55.475C46.7224 54.6075 46.7074 53.99 46.6899 53.395C46.6774 52.895 46.6649 52.395 46.6599 51.7475C43.3413 52.2935 39.9499 52.2155 36.6599 51.5175C36.8102 53.9603 36.7558 56.4113 36.4974 58.845C36.4786 59.262 36.354 59.6674 36.1353 60.023C35.9166 60.3785 35.6111 60.6726 35.2474 60.8775C33.7244 61.7447 31.9886 62.1674 30.2374 62.0975ZM25.3149 58.8025H25.4049L25.4799 59.0875C25.6311 59.5294 25.8918 59.9257 26.2376 60.2396C26.5834 60.5535 27.003 60.7747 27.4574 60.8825C29.8842 61.6224 32.5036 61.3902 34.7624 60.235C35.04 60.0935 35.274 59.8792 35.4391 59.615C35.6042 59.3507 35.6944 59.0465 35.6999 58.735C35.9612 56.2637 36.0072 53.7743 35.8374 51.295L35.6249 51.235L36.4999 49.5L36.6024 50.6575C40.0283 51.4151 43.57 51.4898 47.0249 50.8775L47.4774 50.8175V51.2725C47.4774 52.14 47.4924 52.7575 47.5099 53.3525C47.5274 53.9475 47.5399 54.535 47.5424 55.37C47.6049 55.5175 47.6599 55.66 47.7149 55.7975C47.8032 56.0594 47.9197 56.3108 48.0624 56.5475C48.4126 57.0838 48.9456 57.4747 49.5624 57.6475C49.7414 57.6743 49.9234 57.6743 50.1024 57.6475C50.3048 57.6235 50.5086 57.6126 50.7124 57.615H50.8624L50.9724 57.7175C51.1074 57.8425 51.2424 57.98 51.3774 58.1175C51.6983 58.4936 52.0888 58.8043 52.5274 59.0325C53.6257 59.461 54.8072 59.6333 55.9821 59.5362C57.157 59.4392 58.2943 59.0754 59.3074 58.4725C60.2774 57.7875 60.2649 56.8475 60.2499 55.655V55.4375C60.2499 54.1875 60.2049 52.9375 60.1674 51.7075C60.0949 49.24 60.0199 46.6875 60.1674 44.185V44.02L60.2924 43.91C61.7662 41.8373 62.7058 39.433 63.0281 36.9102C63.3504 34.3875 63.0453 31.8241 62.1399 29.4475C62.0214 29.2145 61.9162 28.975 61.8249 28.73C61.7243 28.4082 61.5535 28.1128 61.3249 27.865L60.7224 27.2175L61.6049 27.1925C63.2399 27.1475 64.5749 27.17 65.8699 27.1925C67.1649 27.215 68.4824 27.2375 70.0974 27.1925H70.2149L70.3149 27.255C70.9666 27.6082 71.6718 27.8522 72.4024 27.9775C72.6074 28.025 72.8099 28.07 73.0074 28.12C73.3362 28.0178 73.6256 27.8168 73.8362 27.5444C74.0469 27.272 74.1686 26.9414 74.1849 26.5975C74.2326 25.8884 74.1838 25.176 74.0399 24.48C74.0049 24.3275 73.9374 24.04 72.9999 24.1875C72.6571 24.2549 72.3309 24.3891 72.0399 24.5825L71.8999 24.6625C71.3999 24.9475 70.8274 25.295 70.3224 25.61L70.2299 25.6675H70.1224C66.5567 25.8135 62.9855 25.7492 59.4274 25.475H59.3224L59.2349 25.415C55.7814 23.1505 51.9085 21.602 47.8458 20.8613C43.783 20.1205 39.6129 20.2025 35.5824 21.1025L35.3324 21.1475L35.1849 20.9475C33.3174 18.3975 29.3499 20.38 26.4524 21.8275C25.6853 22.2378 24.8919 22.5969 24.0774 22.9025L23.9974 22.9275H23.9149C20.5713 22.5976 17.1965 22.7967 13.9149 23.5175C11.1124 24.1775 10.9149 24.5175 10.0474 27.4525C7.5338 36.465 6.68657 45.8607 7.54739 55.1775C7.55276 55.9598 7.77612 56.7251 8.19239 57.3875C8.4867 57.8263 8.86759 58.2004 9.31168 58.4867C9.75577 58.773 10.2537 58.9656 10.7749 59.0525C10.97 59.0638 11.165 59.0292 11.3443 58.9515C11.5237 58.8738 11.6823 58.7551 11.8074 58.605C11.9954 58.4444 12.1369 58.2362 12.2169 58.0023C12.297 57.7683 12.3127 57.5171 12.2624 57.275C12.2624 57.1525 12.2474 57.025 12.2449 56.865C12.2174 55.9 12.1074 54.97 11.9949 54.07C11.8487 53.0406 11.776 52.0022 11.7774 50.9625C11.7408 49.5203 11.9531 48.0826 12.4049 46.7125C12.9247 45.1086 14.0322 43.7609 15.5049 42.94C16.0267 42.5734 16.6388 42.3563 17.2751 42.3123C17.9113 42.2682 18.5475 42.3988 19.1149 42.69C22.1724 44.5225 22.1149 52.415 22.0899 55.785V56.2025C22.376 56.6362 22.7551 57.0008 23.1996 57.2697C23.6441 57.5387 24.143 57.7053 24.6599 57.7575C24.7268 57.7501 24.7944 57.7562 24.8589 57.7755C24.9233 57.7949 24.9832 57.827 25.0349 57.87C25.1253 57.9715 25.1942 58.0903 25.2372 58.2192C25.2801 58.3482 25.2964 58.4846 25.2849 58.62C25.3074 58.6775 25.3099 58.75 25.3149 58.8025Z" fill="#CCCCCC"/>
<path d="M34.7276 49.9525C34.9256 52.5615 34.8871 55.183 34.6126 57.785C34.601 58.1507 34.4936 58.507 34.3009 58.8181C34.1083 59.1292 33.8373 59.3842 33.5151 59.5575C31.4376 61.1 24.4751 61.47 23.6076 58.1925C23.2876 58.18 23.5426 57.12 23.2376 57.16C22.6286 57.11 22.0399 56.9176 21.5188 56.5985C20.9977 56.2793 20.5589 55.8423 20.2376 55.3225C20.2501 51.7375 20.6451 38.805 14.2376 42.2875C12.8452 43.0635 11.801 44.3411 11.3176 45.86C10.8858 47.1852 10.6829 48.5742 10.7176 49.9675C10.6676 51.7525 11.1126 53.705 11.1776 55.8475C11.2026 56.805 11.3551 57.0475 10.6426 57.8625C9.49508 59.175 7.49258 58.0675 6.41008 56.625C5.95228 55.8985 5.7008 55.061 5.68258 54.2025C4.82164 44.8378 5.66872 35.3945 8.18258 26.3325C9.10008 23.2575 9.42008 22.8125 12.3401 22.1225C15.6626 21.3917 19.0795 21.1892 22.4651 21.5225C25.0926 20.6675 31.3276 16.0375 34.0176 19.7125C38.0992 18.8063 42.3209 18.7265 46.4338 19.4779C50.5467 20.2293 54.4676 21.7966 57.9651 24.0875C61.5076 24.3556 65.0627 24.4199 68.6126 24.28C69.1126 23.96 69.6976 23.6175 70.2076 23.3225C70.5819 23.069 71.0023 22.8915 71.4451 22.8C72.0201 22.71 72.7701 22.685 72.9451 23.4C73.0973 24.1338 73.1486 24.8849 73.0976 25.6325C73.0802 26.0832 72.9125 26.5151 72.6212 26.8595C72.3299 27.2038 71.9317 27.4407 71.4901 27.5325C70.4921 27.3687 69.5245 27.0551 68.6201 26.6025C65.3701 26.6925 63.3701 26.5125 60.1201 26.6025C60.6426 27.1625 60.6201 27.5325 61.0001 28.2725C61.9341 30.7307 62.246 33.3817 61.908 35.9895C61.57 38.5974 60.5925 41.0812 59.0626 43.22C58.8326 46.945 59.1126 50.7075 59.1401 54.445C59.1526 55.7325 59.2426 56.9575 58.0301 57.8125C56.9607 58.4536 55.7585 58.8411 54.516 58.9451C53.2735 59.0491 52.0237 58.8669 50.8626 58.4125C50.2297 58.0493 49.6647 57.5789 49.1926 57.0225C48.7775 57.068 48.3592 57.0764 47.9426 57.0475C47.2343 56.8495 46.6222 56.4008 46.2201 55.785C45.9896 55.3638 45.7932 54.9249 45.6326 54.4725C45.6326 52.7225 45.5676 52.0375 45.5676 50.29C41.9634 50.9351 38.2649 50.8313 34.7026 49.985L34.7276 49.9525Z" fill="#373435"/>
<path d="M28.7503 61.0975C27.7177 61.1129 26.6897 60.9574 25.7078 60.6375C25.1627 60.4912 24.6592 60.2197 24.2374 59.8448C23.8156 59.4698 23.487 59.0017 23.2778 58.4775C23.0955 58.2505 23.0062 57.9628 23.0278 57.6725V57.56C22.3923 57.4647 21.7846 57.2345 21.2456 56.8848C20.7066 56.5351 20.2487 56.074 19.9028 55.5325L19.8428 55.435V54.785C19.8653 51.83 19.9228 43.9775 17.2578 42.38C16.8092 42.1621 16.3099 42.0702 15.8131 42.1142C15.3164 42.1583 14.841 42.3366 14.4378 42.63C13.1242 43.3619 12.1403 44.5685 11.6878 46.0025C11.2756 47.2843 11.0829 48.6265 11.1178 49.9725C11.1178 50.9763 11.1888 51.9788 11.3303 52.9725C11.4378 53.89 11.5478 54.8375 11.5803 55.8375C11.5803 55.985 11.5803 56.1125 11.5978 56.2275C11.6547 56.5732 11.6251 56.9277 11.5117 57.2592C11.3983 57.5908 11.2045 57.8891 10.9478 58.1275C10.7448 58.3675 10.4892 58.5573 10.2008 58.6822C9.91245 58.8071 9.59911 58.8637 9.28526 58.8475C8.64462 58.759 8.02967 58.537 7.48018 58.196C6.9307 57.8549 6.45889 57.4023 6.09526 56.8675C5.58267 56.0841 5.30347 55.1711 5.29026 54.235C4.41793 44.8203 5.27193 35.3254 7.81026 26.2175C8.74776 23.08 9.16026 22.4675 12.2578 21.735C15.5949 21.0005 19.0263 20.7921 22.4278 21.1175C23.1755 20.8263 23.9059 20.4925 24.6153 20.1175C27.6953 18.5775 31.8903 16.4825 34.1928 19.2825C38.2739 18.4024 42.489 18.34 46.5943 19.0991C50.6996 19.8582 54.6137 21.4237 58.1103 23.705C61.5672 23.9665 65.0363 24.0283 68.5003 23.89C68.9878 23.5875 69.5328 23.26 70.0153 22.9825L70.1553 22.9025C70.5301 22.6564 70.9498 22.4865 71.3903 22.4025C72.5003 22.23 73.1403 22.535 73.3328 23.305C73.4931 24.0765 73.5478 24.8663 73.4953 25.6525C73.4702 26.1988 73.2612 26.7205 72.9022 27.1331C72.5432 27.5456 72.0553 27.8247 71.5178 27.925H71.4528L71.3903 27.9075C71.1778 27.8525 70.9628 27.8025 70.7403 27.7525C69.9659 27.6157 69.2167 27.3629 68.5178 27.0025C66.9353 27.0425 65.6303 27.02 64.3703 27.0025C63.2878 26.985 62.1753 26.965 60.8853 26.985C60.9653 27.1425 61.0228 27.295 61.0853 27.45C61.1664 27.6685 61.2599 27.8821 61.3653 28.09C62.3349 30.6018 62.6686 33.3144 62.3367 35.9863C62.0047 38.6583 61.0175 41.2068 59.4628 43.405C59.3228 45.82 59.3953 48.2975 59.4628 50.6925C59.4978 51.9225 59.5353 53.1925 59.5453 54.4425V54.6575C59.666 55.2995 59.6107 55.9621 59.3853 56.5752C59.16 57.1883 58.773 57.729 58.2653 58.14C57.1422 58.8237 55.8759 59.2376 54.5658 59.3491C53.2558 59.4606 51.9377 59.2666 50.7153 58.7825C50.1771 58.5161 49.6977 58.1446 49.3053 57.69C49.2178 57.6 49.1303 57.51 49.0403 57.425C48.9178 57.425 48.7903 57.44 48.6778 57.4525C48.404 57.4957 48.1248 57.4906 47.8528 57.4375C47.0487 57.215 46.3529 56.7076 45.8953 56.01C45.7191 55.7263 45.5757 55.4235 45.4678 55.1075C45.4103 54.955 45.3503 54.8 45.2778 54.6375L45.2428 54.56V54.475C45.2428 53.6075 45.2278 52.99 45.2103 52.395C45.1978 51.895 45.1828 51.395 45.1803 50.7475C41.8616 51.2933 38.4703 51.2153 35.1803 50.5175C35.3242 52.9583 35.264 55.4068 35.0003 57.8375C34.9815 58.2545 34.8569 58.6599 34.6382 59.0155C34.4195 59.371 34.1139 59.6651 33.7503 59.87C32.2309 60.738 30.4989 61.1632 28.7503 61.0975ZM23.8278 57.8025H23.9178L23.9928 58.0875C24.144 58.5294 24.4046 58.9257 24.7504 59.2396C25.0962 59.5535 25.5159 59.7746 25.9703 59.8825C28.397 60.6226 31.0165 60.3904 33.2753 59.235C33.5529 59.0935 33.7868 58.8792 33.952 58.615C34.1171 58.3507 34.2073 58.0466 34.2128 57.735C34.474 55.2637 34.52 52.7743 34.3503 50.295L34.1378 50.235L35.0003 48.5125L35.1028 49.67C38.5287 50.4275 42.0704 50.5023 45.5253 49.89L45.9778 49.83V50.285C45.9778 51.1525 45.9928 51.77 46.0103 52.365C46.0278 52.96 46.0403 53.5475 46.0428 54.3825C46.1053 54.53 46.1603 54.6725 46.2153 54.8125C46.3034 55.0744 46.4199 55.3259 46.5628 55.5625C46.9129 56.0989 47.446 56.4898 48.0628 56.6625C48.2417 56.6896 48.4238 56.6896 48.6028 56.6625C48.8052 56.6385 49.0089 56.6277 49.2128 56.63H49.3628L49.4728 56.7325C49.6078 56.8575 49.7428 56.9825 49.8778 57.1325C50.1987 57.5086 50.5892 57.8192 51.0278 58.0475C52.126 58.476 53.3076 58.6483 54.4825 58.5512C55.6574 58.4542 56.7947 58.0904 57.8078 57.4875C58.7778 56.8025 58.7653 55.8625 58.7503 54.67V54.4525C58.7503 53.2025 58.7053 51.9525 58.6678 50.72C58.5953 48.2525 58.5203 45.7025 58.6678 43.2V43.035L58.7928 42.925C60.2663 40.8522 61.2059 38.4479 61.5281 35.9252C61.8504 33.4025 61.5454 30.8392 60.6403 28.4625C60.5217 28.2295 60.4166 27.99 60.3253 27.745C60.2247 27.4232 60.0539 27.1278 59.8253 26.88L59.2228 26.2325L60.1053 26.2075C61.7403 26.1625 63.0753 26.185 64.3703 26.2075C65.6653 26.23 66.9828 26.2525 68.5978 26.2075H68.7153L68.8153 26.27C69.467 26.6232 70.1722 26.8672 70.9028 26.9925C71.1078 27.04 71.3103 27.085 71.5078 27.135C71.8366 27.0328 72.1259 26.8318 72.3366 26.5594C72.5472 26.2871 72.669 25.9564 72.6853 25.6125C72.7329 24.9034 72.6841 24.191 72.5403 23.495C72.5053 23.3425 72.4378 23.0575 71.5003 23.2025C71.1574 23.2698 70.8312 23.4041 70.5403 23.5975L70.3978 23.6775C69.8978 23.965 69.3203 24.3125 68.8203 24.625L68.7503 24.675H68.6428C65.0771 24.8209 61.5059 24.7566 57.9478 24.4825H57.8428L57.7503 24.4175C54.2967 22.153 50.4239 20.6045 46.3611 19.8638C42.2984 19.123 38.1283 19.205 34.0978 20.105L33.8478 20.15L33.7003 19.95C31.8328 17.4 27.8653 19.3825 24.9678 20.83C24.2007 21.2403 23.4073 21.5994 22.5928 21.905L22.5128 21.93H22.4303C19.0866 21.6 15.7119 21.7991 12.4303 22.52C9.62776 23.18 9.43026 23.52 8.56276 26.455C6.04916 35.4675 5.20194 44.8632 6.06276 54.18C6.06812 54.9623 6.29149 55.7276 6.70776 56.39C7.00207 56.8288 7.38295 57.2029 7.82705 57.4892C8.27114 57.7756 8.76907 57.9681 9.29026 58.055C9.48553 58.0677 9.68102 58.0338 9.86057 57.956C10.0401 57.8782 10.1985 57.7587 10.3228 57.6075C10.5108 57.4469 10.6523 57.2388 10.7323 57.0048C10.8123 56.7708 10.828 56.5196 10.7778 56.2775C10.7778 56.155 10.7628 56.0275 10.7603 55.8675C10.7328 54.9025 10.6228 53.9725 10.5103 53.0725C10.3639 52.0432 10.2913 51.0047 10.2928 49.965C10.2562 48.5228 10.4685 47.0851 10.9203 45.715C11.4401 44.1111 12.5476 42.7634 14.0203 41.9425C14.5421 41.5759 15.1542 41.3588 15.7904 41.3148C16.4267 41.2707 17.0629 41.4013 17.6303 41.6925C20.6878 43.525 20.6303 51.4175 20.6053 54.7875V55.205C20.895 55.6399 21.2785 56.0045 21.7275 56.2718C22.1766 56.5392 22.6798 56.7026 23.2003 56.75C23.2671 56.7426 23.3348 56.7487 23.3992 56.768C23.4637 56.7874 23.5235 56.8195 23.5753 56.8625C23.6657 56.964 23.7345 57.0828 23.7775 57.2118C23.8205 57.3407 23.8368 57.4771 23.8253 57.6125C23.8203 57.6775 23.8228 57.75 23.8278 57.8025Z" fill="#373435"/>
<path d="M46.4298 49.865C47.232 49.7876 48.0244 49.6293 48.7948 49.3925C49.1817 51.6616 49.2967 53.9687 49.1373 56.265C48.5535 56.3018 47.972 56.1638 47.467 55.8685C46.9621 55.5733 46.5565 55.1343 46.3023 54.6075C46.1732 53.0267 46.2159 51.4366 46.4298 49.865Z" fill="#6978AB"/>
<path d="M49.0548 56.665C48.4116 56.6869 47.7758 56.5216 47.2246 56.1892C46.6735 55.8569 46.2306 55.3716 45.9498 54.7925L45.9123 54.7225V54.6425C45.7818 53.0325 45.8253 51.4131 46.0423 49.8125L46.0823 49.5025L46.3923 49.4675C47.168 49.3921 47.9343 49.2397 48.6798 49.0125L49.0898 48.88L49.1898 49.3C49.5659 51.3472 49.6893 53.4328 49.5573 55.51L49.5373 56.6575H49.1523L49.0548 56.665ZM46.6948 54.49C46.8902 54.875 47.1819 55.2028 47.5416 55.4416C47.9013 55.6804 48.3167 55.8219 48.7473 55.8525V55.4925C48.8549 53.6239 48.7711 51.7491 48.4973 49.8975C47.9363 50.045 47.3658 50.1536 46.7898 50.2225C46.6153 51.6416 46.5827 53.0745 46.6923 54.5L46.6948 54.49Z" fill="#373435"/>
<path d="M10.1297 56.7075C9.56718 53.0225 8.99468 46.52 11.6297 43.42C11.8382 43.1391 12.0636 42.8711 12.3047 42.6175C16.4622 38.7025 20.0847 42.07 21.0672 46.405C21.2754 49.1458 21.318 51.8966 21.1947 54.6425C21.4403 55.1202 21.8193 55.5162 22.2858 55.7825C22.7522 56.0488 23.286 56.1738 23.8222 56.1425C24.2047 56.9325 24.1022 57.52 24.5372 58.0425C25.3628 58.9693 26.4458 59.6292 27.6479 59.9382C28.85 60.2472 30.117 60.1912 31.2872 59.7775C32.0702 59.4455 32.8324 59.0665 33.5697 58.6425C34.1666 55.2891 34.0815 51.8498 33.3197 48.53C33.3197 48.07 33.1672 47.765 33.1672 47.305C33.4532 47.346 33.7223 47.4654 33.9447 47.65C33.4447 49.485 40.3347 50.7475 48.3722 48.53C48.4622 48.21 48.3072 47.815 48.4997 47.7C48.624 47.6222 48.7639 47.5726 48.9095 47.5549C49.0551 47.5372 49.2028 47.5517 49.3422 47.5975C49.3797 48.185 49.3922 48.7575 49.4322 49.3475C50.0555 49.4063 50.6825 49.4146 51.3072 49.3725C50.8971 49.7413 50.3581 49.9336 49.8072 49.9075C49.9472 49.9075 49.7297 50.175 49.8572 50.2C50.2272 50.29 50.9297 50.15 51.2222 50.2775C50.6747 50.5975 50.0622 50.4175 49.6922 50.7775C49.7822 52.7275 49.8322 54.82 49.9097 56.7775C51.1153 57.6926 52.6033 58.1567 54.1153 58.0891C55.6274 58.0215 57.068 57.4265 58.1872 56.4075C58.4261 52.4906 58.3424 48.5607 57.9372 44.6575C57.6447 44.62 57.3497 44.5675 57.0572 44.53C61.6247 38.385 62.5047 32.0975 58.6772 26.4225C58.6397 26.1725 58.4722 25.9225 58.4272 25.6725C61.7572 25.545 65.1772 25.89 68.5172 25.7625C69.4188 26.1039 70.3492 26.3641 71.2972 26.54C72.2797 26.195 72.4572 23.4675 71.4897 23.7725C70.5222 24.0775 69.9897 24.69 68.9522 25.0725C65.1247 25.0725 60.8772 24.92 57.0522 24.92C53.9295 22.4355 50.2312 20.7779 46.2987 20.1002C42.3662 19.4225 38.3263 19.7466 34.5522 21.0425C35.7146 23.5455 36.3705 26.2538 36.482 29.0113C36.5936 31.7689 36.1586 34.5212 35.2022 37.11C34.9847 37.825 31.6822 39.915 34.3847 37.6325C37.1147 35.3125 35.4047 19.195 32.0497 19.1675C28.1017 19.2085 24.3118 20.7244 21.4247 23.4175C20.9022 22.8575 20.9397 23.085 21.1747 22.295C18.3193 22.0491 15.4429 22.3029 12.6747 23.045C11.9572 23.0679 11.2633 23.3065 10.6836 23.7297C10.1038 24.153 9.66509 24.7411 9.42468 25.4175C6.90175 34.4337 5.88806 43.8053 6.42468 53.1525C6.55604 54.2733 6.85258 55.3685 7.30468 56.4025C8.80468 58.0475 9.61468 57.575 10.1122 56.7075H10.1297Z" fill="url(#paint0_linear_824_12)"/>
<path d="M16.1149 26.055C15.2738 25.712 14.3604 25.584 13.4574 25.6825C13.3746 25.6735 13.2911 25.6934 13.2214 25.739C13.1516 25.7846 13.0999 25.853 13.0749 25.9325C13.0413 25.9901 13.0196 26.0538 13.011 26.12C13.0024 26.1861 13.0071 26.2532 13.0249 26.3175C13.1024 26.535 13.1149 26.5225 13.3049 26.5675C13.5565 26.605 13.8135 26.5828 14.0549 26.5025C14.3403 26.3521 14.6552 26.2662 14.9774 26.2506C15.2996 26.2351 15.6213 26.2903 15.9199 26.4125C16.1999 26.4 16.2274 26.285 16.1374 26.065L16.1149 26.055Z" fill="#373435"/>
<path d="M13.515 26.9775C13.4159 26.9779 13.317 26.9678 13.22 26.9475H13.1875C13.0552 26.934 12.9308 26.878 12.833 26.7879C12.7352 26.6977 12.6692 26.5783 12.645 26.4475C12.6098 26.33 12.5986 26.2066 12.6119 26.0846C12.6252 25.9627 12.6628 25.8447 12.7225 25.7375C12.7805 25.5993 12.8794 25.4821 13.0058 25.4017C13.1323 25.3213 13.2803 25.2814 13.43 25.2875C14.3633 25.1888 15.3066 25.3166 16.18 25.66H16.385L16.4875 25.91C16.545 26.0043 16.5749 26.1128 16.574 26.2232C16.5731 26.3336 16.5413 26.4415 16.4823 26.5348C16.4233 26.6282 16.3394 26.7031 16.24 26.7513C16.1407 26.7995 16.0298 26.819 15.92 26.8075H15.86L15.7925 26.7875C15.5463 26.6809 15.2795 26.6305 15.0113 26.64C14.7432 26.6495 14.4806 26.7187 14.2425 26.8425L14.1975 26.87L14.1475 26.8825C13.9417 26.9414 13.7291 26.9734 13.515 26.9775ZM13.405 26.17C13.5734 26.1873 13.7435 26.1703 13.905 26.12L14.04 26.0525C13.865 26.0525 13.6875 26.0525 13.5075 26.08H13.4425L13.4275 26.11C13.4166 26.1286 13.409 26.1489 13.405 26.17Z" fill="#373435"/>
<path d="M14.0546 29.2175C14.1689 28.9798 14.3492 28.7801 14.574 28.6422C14.7988 28.5043 15.0585 28.4341 15.3221 28.44C15.3721 28.12 15.3221 27.94 14.9121 27.94C14.3299 28.2352 13.8325 28.674 13.4671 29.215C13.2574 29.6853 13.1904 30.2069 13.2746 30.715C13.3204 31.0622 13.4997 31.378 13.7746 31.595C14.0593 31.7732 14.3911 31.8611 14.7266 31.8473C15.0621 31.8334 15.3856 31.7185 15.6546 31.5175C16.5496 30.995 17.4446 29.5025 15.8721 28.94C15.557 28.8785 15.2328 28.8807 14.9185 28.9464C14.6042 29.0121 14.3062 29.1399 14.0421 29.3225C14.0171 29.335 14.0046 29.285 14.0421 29.22L14.0546 29.2175Z" fill="#373435"/>
<path d="M14.5402 32.265C14.1687 32.2723 13.8069 32.1464 13.5202 31.91C13.1665 31.6257 12.937 31.2152 12.8802 30.765C12.7784 30.1699 12.8658 29.5578 13.1302 29.015C13.5303 28.4146 14.0766 27.9259 14.7177 27.595L14.8052 27.5425H14.9002C15.0228 27.5307 15.1466 27.5458 15.2627 27.5868C15.3789 27.6279 15.4847 27.6938 15.5727 27.78C15.6483 27.8825 15.7004 28.0003 15.7255 28.1251C15.7505 28.25 15.7479 28.3788 15.7177 28.5025C16.0572 28.5538 16.3733 28.7062 16.6249 28.9399C16.8764 29.1736 17.0516 29.4777 17.1277 29.8125C17.1133 30.2363 16.9885 30.649 16.7658 31.0098C16.5431 31.3707 16.2301 31.6671 15.8577 31.87C15.4606 32.1146 15.0064 32.2508 14.5402 32.265ZM13.7327 29.6C13.6402 29.9523 13.6198 30.3196 13.6727 30.68C13.7078 30.9261 13.8379 31.1487 14.0352 31.3C14.5177 31.7025 15.3002 31.2725 15.4527 31.1825C15.6932 31.054 15.899 30.869 16.0523 30.6434C16.2055 30.4179 16.3018 30.1585 16.3327 29.8875C16.3102 29.6375 16.1102 29.4575 15.7402 29.325C15.2201 29.2465 14.6897 29.37 14.2577 29.67L14.2252 29.6875L13.9577 29.8225L13.7377 29.6H13.7327Z" fill="#373435"/>
<path d="M14.7501 30.9525C14.7553 31.0436 14.773 31.1336 14.8026 31.22C14.8154 31.2603 14.833 31.2989 14.8551 31.335C14.7821 31.3834 14.6984 31.4133 14.6113 31.422C14.5242 31.4307 14.4362 31.418 14.3551 31.385C13.8026 31.135 13.8426 30.36 14.1251 29.94C14.2731 29.7234 14.4698 29.5445 14.6995 29.4177C14.9292 29.2909 15.1854 29.2198 15.4476 29.21C15.7426 29.3625 15.8326 29.505 15.6776 29.5425C15.59 29.5591 15.5056 29.5895 15.4276 29.6325C15.3682 29.6591 15.3152 29.6981 15.2721 29.7468C15.229 29.7955 15.1968 29.8528 15.1776 29.915C15.3051 29.9525 15.3701 29.915 15.4851 29.965V30.3625C15.3622 30.3008 15.2219 30.2831 15.0876 30.3125C14.8376 30.39 14.7401 30.7475 14.7401 30.965L14.7501 30.9525Z" fill="#FEFEFE"/>
<path d="M15.8076 41.1475C16.5158 40.9957 17.1869 40.7049 17.7819 40.2919C18.377 39.879 18.8842 39.352 19.2741 38.7416C19.6641 38.1313 19.929 37.4496 20.0536 36.7361C20.1783 36.0226 20.1601 35.2914 20.0001 34.585C19.5526 34.5757 19.114 34.4573 18.7226 34.24C18.6976 34.075 18.6851 33.9075 18.6576 33.74C19.6926 34.24 21.1576 34.39 20.9676 32.8075C21.1076 32.77 21.3251 32.7575 21.4676 32.7175C21.4176 33.8275 21.2176 33.93 20.5351 34.4025C20.7314 35.6127 20.629 36.8525 20.2369 38.0141C19.8447 39.1757 19.1747 40.2239 18.2851 41.0675C18.2322 41.4147 18.263 41.7696 18.3751 42.1025C18.0479 41.7606 17.6463 41.4986 17.2014 41.3369C16.7566 41.1752 16.2806 41.1181 15.8101 41.17L15.8076 41.1475Z" fill="#373435"/>
<path d="M19.0802 43.4775L18.0802 42.3725C17.7899 42.0736 17.4343 41.8458 17.0414 41.707C16.6485 41.5682 16.2288 41.5222 15.8152 41.5725H15.4102V40.8725L15.6927 40.76C16.9798 40.4961 18.1135 39.7408 18.8528 38.6546C19.5922 37.5684 19.8791 36.2368 19.6527 34.9425C19.2473 34.9123 18.8549 34.7863 18.5077 34.575L18.3527 34.4775L18.3252 34.3C18.3127 34.2125 18.3002 34.125 18.2902 34.0375C18.2802 33.95 18.2727 33.8825 18.2602 33.8025L18.1452 33.0525L18.8277 33.3825C19.0569 33.5298 19.3161 33.6241 19.5864 33.6587C19.8566 33.6933 20.1312 33.6673 20.3902 33.5825C20.5502 33.47 20.6102 33.225 20.5677 32.855L20.5302 32.515L20.8602 32.425C20.9581 32.4006 21.0575 32.3823 21.1577 32.37C21.2249 32.3621 21.2917 32.3504 21.3577 32.335L21.8877 32.19L21.8627 32.7375C21.8102 33.8775 21.5602 34.165 20.9602 34.5925C21.1164 35.8078 20.9889 37.0427 20.5877 38.2004C20.1864 39.3581 19.5224 40.4071 18.6477 41.265C18.6482 41.478 18.6776 41.6899 18.7352 41.895L19.0802 43.4775ZM17.3302 40.9575C17.5119 41.0156 17.6877 41.091 17.8552 41.1825C17.8627 41.0974 17.8803 41.0135 17.9077 40.9325L17.9352 40.8525L17.9927 40.79C18.206 40.5617 18.4035 40.3325 18.5852 40.1025C18.2011 40.4348 17.78 40.7217 17.3302 40.9575Z" fill="#373435"/>
<path d="M55.3929 58.0325C55.3304 57.09 55.2154 56.2625 55.1879 55.3175C55.1254 53.1525 53.4804 52.68 53.3904 54.845C53.3404 55.98 53.3904 57.05 53.3904 58.12C54.0577 58.2113 54.736 58.1816 55.3929 58.0325Z" fill="#8093D0"/>
<path d="M54.3477 58.3C54.0977 58.3 53.8627 58.285 53.6252 58.27L53.2502 58.25V58.125C53.2502 57.77 53.2502 57.4175 53.2502 57.0625C53.2502 56.3475 53.2277 55.6075 53.2502 54.845C53.2977 53.7125 53.7502 53.31 54.1527 53.31C54.6852 53.31 55.2702 54.0175 55.3102 55.31C55.3252 55.8875 55.3752 56.415 55.4252 56.9725C55.4577 57.3125 55.4877 57.6575 55.5127 58.0175V58.125L55.4102 58.155C55.0647 58.2532 54.707 58.302 54.3477 58.3ZM53.5252 58H53.6452C54.1815 58.0631 54.7244 58.0386 55.2527 57.9275C55.2302 57.6075 55.2002 57.3 55.1727 56.9975C55.1202 56.435 55.0727 55.905 55.0552 55.3175C55.0227 54.24 54.5552 53.5675 54.1627 53.5675C53.8927 53.5675 53.5652 53.9025 53.5252 54.8475C53.4902 55.5975 53.5027 56.3475 53.5252 57.05C53.5202 57.37 53.5252 57.6825 53.5252 58Z" fill="#373435"/>
<path d="M53.4204 58.1425C53.2388 57.055 53.171 55.9515 53.2179 54.85C53.3579 52.85 51.4679 50.7425 51.3404 54.455C51.294 55.54 51.3367 56.627 51.4679 57.705C52.1064 57.9012 52.7592 58.0475 53.4204 58.1425Z" fill="#8093D0"/>
<path d="M53.573 58.3025L53.4005 58.275C52.7317 58.1812 52.0713 58.035 51.4255 57.8375L51.3455 57.81V57.7275C51.2132 56.6412 51.1705 55.5458 51.218 54.4525C51.258 53.255 51.468 52.545 51.8755 52.34C51.9685 52.2936 52.0728 52.2743 52.1763 52.2845C52.2797 52.2947 52.3783 52.3338 52.4605 52.3975C52.7875 52.7128 53.0387 53.0983 53.1951 53.5249C53.3514 53.9515 53.4088 54.408 53.363 54.86C53.3066 55.8255 53.3527 56.7942 53.5005 57.75L53.573 58.3025ZM51.588 57.61C52.1379 57.7733 52.6984 57.8986 53.2655 57.985L53.2405 57.7775C53.086 56.8073 53.0332 55.8237 53.083 54.8425C53.1254 54.4372 53.0771 54.0276 52.9418 53.6432C52.8065 53.2588 52.5874 52.9093 52.3005 52.62C52.2576 52.5834 52.2053 52.5598 52.1495 52.5518C52.0937 52.5439 52.0369 52.5519 51.9855 52.575C51.848 52.645 51.523 52.9725 51.4705 54.46C51.4256 55.5115 51.4649 56.5648 51.588 57.61Z" fill="#373435"/>
<path d="M51.4699 57.875L51.2024 53.625C51.0099 50.4525 49.7349 50.8225 49.6324 53.435C49.5824 54.67 49.6824 55.345 49.5674 56.5825C50.1674 56.99 50.7924 57.7925 51.4699 57.8575V57.875Z" fill="#8093D0"/>
<path d="M51.4572 58C50.9223 57.8693 50.4389 57.581 50.0697 57.1725C49.8875 57.0046 49.6955 56.8476 49.4947 56.7025L49.4297 56.6575V56.58C49.482 55.9815 49.4995 55.3805 49.4822 54.78C49.4822 54.375 49.4822 53.9575 49.4822 53.44C49.5347 52.1075 49.8872 51.2425 50.3797 51.2375C50.8797 51.2375 51.2247 52.13 51.3147 53.6275L51.5822 57.8775H51.4472L51.4572 58ZM49.7072 56.5275C49.8872 56.6575 50.0672 56.8175 50.2447 56.9725C50.5506 57.2883 50.9182 57.5376 51.3247 57.705L51.0747 53.645C50.9797 52.0725 50.6222 51.505 50.4047 51.505C50.1797 51.505 49.8222 52.1275 49.7722 53.4525C49.7497 53.9525 49.7572 54.38 49.7722 54.78C49.782 55.3616 49.7603 55.9433 49.7072 56.5225V56.5275Z" fill="#373435"/>
<path d="M29.6623 60.07C29.6962 59.075 29.6451 58.0789 29.5098 57.0925C28.9748 54.7925 28.2998 54.51 27.5098 56.21V60.03C28.2243 60.1278 28.9482 60.1362 29.6648 60.055L29.6623 60.07Z" fill="#8093D0"/>
<path d="M28.8547 60.25C28.4397 60.25 28.0247 60.2125 27.6172 60.175L27.3672 60.1525V56.1525C27.7497 55.33 28.1172 54.9475 28.4872 54.9875C28.9422 55.035 29.3022 55.6925 29.6197 57.06L29.6447 57.2775C29.7679 58.2037 29.8122 59.1388 29.7772 60.0725H29.6472L29.6647 60.1875C29.3967 60.2295 29.1259 60.2504 28.8547 60.25ZM27.6397 59.91C28.2674 59.9905 28.9021 60.0014 29.5322 59.9425C29.5571 59.0628 29.5119 58.1825 29.3972 57.31L29.3747 57.1075C29.0097 55.54 28.6547 55.2725 28.4772 55.255C28.3397 55.255 28.0572 55.3525 27.6397 56.2425V59.91Z" fill="#373435"/>
<path d="M25.7504 59.44C25.7629 57.975 25.7754 57.005 25.7754 55.54C26.3104 53.385 26.8579 53.6025 27.3929 56.19C27.4054 57.58 27.4179 58.485 27.4179 59.8725C26.8326 59.8496 26.259 59.7022 25.7354 59.44H25.7504Z" fill="#8093D0"/>
<path d="M27.5427 60.0225L27.3177 59.9975C26.74 59.9695 26.1749 59.8187 25.6602 59.555L25.2227 59.305H25.6077V58.555C25.6077 57.53 25.6252 56.6825 25.6252 55.5275V55.495C25.8952 54.41 26.1602 53.925 26.4877 53.925C26.7377 53.925 27.0902 54.1875 27.4877 56.15V57.015C27.4877 57.9775 27.5052 58.765 27.5052 59.8625L27.5427 60.0225ZM25.8752 59.3675C26.3155 59.5747 26.7917 59.6953 27.2777 59.7225C27.2777 58.7075 27.2777 57.945 27.2602 57.0275V56.19C26.8677 54.3075 26.5677 54.205 26.5102 54.205C26.4527 54.205 26.2377 54.235 25.9077 55.555C25.9077 56.7025 25.9077 57.555 25.8902 58.57L25.8752 59.3675Z" fill="#373435"/>
<path d="M23.75 56.5575C23.8275 55.3325 24.0825 54.095 24.1575 52.87C23.6575 50.445 23.1125 50.0125 22.54 51.595C22.515 53.165 22.5025 54.7475 22.4775 56.3175C22.8558 56.5587 23.3112 56.6481 23.7525 56.5675L23.75 56.5575Z" fill="#8093D0"/>
<path d="M23.4325 56.75C23.1272 56.7343 22.8296 56.6487 22.5625 56.5L22.3525 56.405V56.3175C22.3659 55.5325 22.3767 54.7458 22.385 53.9575C22.3934 53.1692 22.4042 52.3817 22.4175 51.595V51.5525C22.6675 50.835 22.9325 50.5125 23.2325 50.5325C23.5325 50.5525 23.88 50.835 24.2925 52.8475V52.8825C24.255 53.5 24.17 54.1325 24.0875 54.735C24.005 55.3375 23.9225 55.96 23.885 56.565V56.68L23.78 56.7025C23.6662 56.7303 23.5497 56.7462 23.4325 56.75ZM22.6225 56.25L22.6725 56.2725C22.9619 56.4453 23.3004 56.5174 23.635 56.4775C23.675 55.89 23.755 55.2925 23.835 54.715C23.915 54.1375 23.9975 53.5 24.0375 52.8975C23.645 50.99 23.315 50.82 23.2225 50.8125C23.1725 50.8125 22.9725 50.855 22.685 51.6375C22.6717 52.4142 22.6609 53.1933 22.6525 53.975C22.6442 54.7567 22.6342 55.5083 22.6225 56.23V56.25Z" fill="#373435"/>
<path d="M47.5525 56.17C47.655 54.8675 47.515 53.7825 47.5525 52.5075C47.59 50.9625 49.1175 51.41 49.1825 52.8275C49.2475 54.245 49.3225 54.9725 49.4 56.3875C48.7809 56.4923 48.1448 56.4168 47.5675 56.17H47.5525Z" fill="#8093D0"/>
<path d="M48.6579 56.545C48.2669 56.5587 47.8789 56.4727 47.5304 56.295H47.4204V56.1525C47.4651 55.4567 47.4701 54.7589 47.4354 54.0625C47.4204 53.5625 47.4029 53.045 47.4204 52.4975C47.4404 51.6925 47.8379 51.4025 48.2029 51.4C48.7029 51.4 49.2704 51.9375 49.3079 52.815C49.3454 53.5375 49.3829 54.065 49.4179 54.6175C49.4529 55.17 49.4879 55.675 49.5254 56.3675V56.5025L49.1379 56.5175C48.9804 56.5375 48.8179 56.545 48.6579 56.545ZM47.6904 56.085C48.1479 56.2742 48.648 56.3364 49.1379 56.265H49.2579C49.2229 55.6325 49.1904 55.1375 49.1579 54.645C49.1229 54.1025 49.0879 53.5625 49.0479 52.8375C49.0079 52.1125 48.5904 51.675 48.2079 51.675C47.8954 51.675 47.7079 51.9925 47.6879 52.515C47.6679 53.0375 47.6879 53.5675 47.7029 54.065C47.7337 54.7381 47.7296 55.4123 47.6904 56.085Z" fill="#373435"/>
<path d="M47.4721 56.2175C47.4346 55.2625 47.4471 54.115 47.4096 53.16C47.4996 51.8475 46.5946 49.91 46.2396 52.065C46.1269 52.863 46.0593 53.6668 46.0371 54.4725C46.4491 55.1057 46.9304 55.691 47.4721 56.2175Z" fill="#B9C5EA"/>
<path d="M47.615 56.4875L47.3925 56.3275C46.9525 55.9395 46.5681 55.4928 46.25 55C46.13 54.8325 46.02 54.68 45.93 54.565L45.8975 54.525V54.475C45.915 54.225 45.9275 53.975 45.9375 53.775C45.9563 53.1988 46.0114 52.6243 46.1025 52.055C46.1475 51.775 46.2875 50.925 46.735 50.98C47.235 51.04 47.5925 52.375 47.5375 53.18C47.5575 53.645 47.5625 54.18 47.57 54.6975C47.5775 55.215 47.5825 55.7475 47.6025 56.2225L47.615 56.4875ZM46.17 54.4325C46.2575 54.545 46.3575 54.6825 46.4675 54.8375C46.7265 55.2201 47.0149 55.5821 47.33 55.92C47.33 55.525 47.3125 55.1025 47.3075 54.6925C47.3075 54.1775 47.295 53.6425 47.275 53.1675C47.3375 52.2375 46.925 51.26 46.7075 51.235C46.66 51.22 46.4875 51.37 46.3675 52.0875C46.2779 52.6469 46.2236 53.2113 46.205 53.7775C46.195 53.9775 46.185 54.19 46.17 54.43V54.4325Z" fill="#373435"/>
<path d="M36.1074 38.6475C36.7574 35.5475 37.3949 32.4475 38.0449 29.335C38.1474 28.6075 38.3374 27.9575 39.1024 27.8925H40.0324C40.5924 27.8925 40.9124 28.225 40.9624 28.8925L40.7724 30.27C40.7974 30.8325 41.1424 31.15 41.8299 31.2025C42.7599 31.24 43.7049 31.2925 44.6349 31.33C46.0374 31.42 46.9799 32.02 46.8849 33.7675C46.5924 35.31 46.2974 36.855 46.0049 38.385C45.9889 38.7417 45.8679 39.0858 45.6571 39.374C45.4463 39.6622 45.155 39.8817 44.8199 40.005C44.3999 39.98 43.9274 40.03 43.5074 40.005C42.7799 40.0425 42.3599 39.775 42.6274 38.8175C42.8949 37.605 43.2274 36.0875 43.5074 34.875C43.6099 33.4325 43.0749 33.3575 42.5074 33.255C42.0224 33.19 41.5524 33.255 41.0674 33.19C40.3524 33.2925 40.0849 33.98 39.8824 34.7475C39.5774 36.035 39.2574 37.325 38.9524 38.625C38.8124 39.3275 38.6599 39.785 38.1374 40.0025H36.5824C35.9957 39.8742 35.829 39.415 36.0824 38.625L36.1074 38.6475Z" fill="#373435"/>
<path d="M43.7722 40.275C43.6797 40.275 43.5897 40.275 43.4997 40.275C43.3119 40.3066 43.1193 40.292 42.9385 40.2323C42.7577 40.1726 42.5942 40.0697 42.4622 39.9325C42.3515 39.758 42.2848 39.5592 42.2678 39.3533C42.2508 39.1473 42.2841 38.9403 42.3647 38.75L42.5172 38.055C42.7497 37 43.0172 35.8225 43.2372 34.84C43.3147 33.6775 43.0022 33.62 42.4872 33.525C42.0222 33.4625 41.5747 33.525 41.0747 33.465C40.5747 33.555 40.3472 34.0525 40.1422 34.82C40.0072 35.3875 39.8672 35.965 39.7272 36.5425C39.5547 37.2575 39.3822 37.9725 39.2122 38.6925C39.0422 39.4125 38.9047 39.9775 38.2397 40.255L38.1897 40.275H36.5247C36.3832 40.2519 36.2484 40.1986 36.1294 40.1188C36.0103 40.039 35.9098 39.9345 35.8347 39.8125C35.7473 39.6157 35.7021 39.4028 35.7021 39.1875C35.7021 38.9722 35.7473 38.7593 35.8347 38.5625L35.9172 38.3125C36.2505 36.6975 36.5838 35.0817 36.9172 33.465C37.2038 32.0817 37.4913 30.6975 37.7797 29.3125C37.8497 28.8125 37.9972 27.75 39.0772 27.66H40.0297C40.4397 27.66 41.1422 27.82 41.2247 28.91V28.9375L41.0322 30.3175C41.0497 30.6 41.1672 30.9225 41.8422 30.9725L43.2447 31.035L44.6372 31.0975C44.9931 31.0642 45.3518 31.1136 45.6855 31.2418C46.0191 31.37 46.3186 31.5736 46.5607 31.8367C46.8027 32.0997 46.9806 32.4152 47.0806 32.7583C47.1806 33.1015 47.2 33.4631 47.1372 33.815V33.85C46.8447 35.395 46.5497 36.9375 46.2572 38.47C46.2325 38.8725 46.091 39.2592 45.8498 39.5824C45.6087 39.9057 45.2785 40.1516 44.8997 40.29L44.8497 40.3075H44.7947C44.5972 40.3075 44.3847 40.3075 44.1622 40.3075C44.0347 40.27 43.9022 40.275 43.7722 40.275ZM43.5022 39.735H43.5172C43.7147 39.735 43.9272 39.735 44.1497 39.735C44.3722 39.735 44.5697 39.735 44.7747 39.735C45.0519 39.6199 45.2901 39.4273 45.4608 39.1804C45.6315 38.9334 45.7275 38.6425 45.7372 38.3425C46.0305 36.8092 46.323 35.2725 46.6147 33.7325C46.6922 32.3275 46.0947 31.6875 44.6147 31.595L43.2247 31.5325L41.8172 31.4675C40.7172 31.385 40.5222 30.69 40.5047 30.2825V30.25L40.6947 28.8775C40.6372 28.2375 40.3097 28.155 40.0322 28.155H39.1022C38.6422 28.195 38.4272 28.5125 38.3072 29.3675C38.0147 30.7725 37.7272 32.155 37.4397 33.5375C37.083 35.2592 36.7247 36.9792 36.3647 38.6975L36.2647 39.18L36.2347 39.15C36.2158 39.2788 36.2358 39.4102 36.2922 39.5275C36.3279 39.5811 36.3743 39.6268 36.4285 39.6617C36.4827 39.6965 36.5435 39.7198 36.6072 39.73H38.0747C38.4322 39.56 38.5547 39.23 38.6847 38.565C38.8572 37.835 39.0297 37.1175 39.2022 36.4025C39.3422 35.8258 39.4805 35.25 39.6172 34.675C39.7697 34.105 40.0472 33.055 41.0247 32.925H41.0597H41.0972C41.5522 32.985 42.0272 32.925 42.5372 32.99H42.5722C43.2872 33.12 43.8697 33.3525 43.7622 34.8875V34.93C43.5347 35.915 43.2622 37.1 43.0397 38.16L42.8822 38.87C42.7822 39.2275 42.7822 39.4725 42.8822 39.5925C42.9822 39.7125 43.2747 39.745 43.4897 39.735H43.5022Z" fill="#FEFEFE"/>
<path d="M24.0595 42.235C24.697 38.93 25.347 35.625 25.987 32.3325C25.9787 32.1829 26.002 32.0332 26.0555 31.8933C26.109 31.7533 26.1914 31.6262 26.2973 31.5203C26.4032 31.4143 26.5303 31.332 26.6703 31.2785C26.8103 31.225 26.9599 31.2017 27.1095 31.21H32.9795C33.5388 31.1935 34.092 31.3298 34.5797 31.6042C35.0673 31.8786 35.4709 32.2808 35.747 32.7675C36.14 33.4791 36.3049 34.2941 36.2195 35.1025C36.0939 36.4905 35.4789 37.7886 34.4845 38.765C33.6702 39.4526 32.6726 39.8871 31.6145 40.015C30.6145 40.04 29.6145 40.0525 28.6145 40.08C28.0395 40.03 27.467 40.1825 27.327 40.6425C27.1495 41.2675 27.022 41.8925 26.842 42.505C26.7796 42.6429 26.688 42.7658 26.5737 42.865C26.4593 42.9643 26.3249 43.0376 26.1795 43.08C25.6045 43.0925 25.0195 43.0925 24.4445 43.105C23.8295 43.115 23.957 42.75 24.0595 42.235ZM28.1545 36.57C28.3195 35.7025 28.5245 34.72 28.677 33.955C28.7585 33.7258 28.9117 33.5291 29.114 33.3939C29.3162 33.2588 29.5566 33.1926 29.7995 33.205C30.4047 33.1621 31.0124 33.2402 31.587 33.435C31.8386 33.5366 32.0657 33.6904 32.2533 33.8864C32.441 34.0824 32.5848 34.316 32.6753 34.5717C32.7659 34.8275 32.801 35.0996 32.7785 35.3699C32.7559 35.6403 32.6762 35.9028 32.5445 36.14C32.3222 36.5576 32.0196 36.9271 31.6541 37.2274C31.2885 37.5278 30.8673 37.7529 30.4145 37.89C29.9987 37.9986 29.5686 38.0416 29.1395 38.0175C28.042 37.9025 27.952 37.61 28.1395 36.5625L28.1545 36.57Z" fill="#373435"/>
<path d="M24.4153 43.37C24.3088 43.3807 24.2013 43.3672 24.1009 43.3304C24.0004 43.2936 23.9096 43.2345 23.8353 43.1575C23.6453 42.93 23.7103 42.6225 23.7778 42.2975L23.8003 42.185C24.152 40.365 24.5061 38.545 24.8628 36.725C25.1495 35.255 25.4353 33.7867 25.7203 32.32C25.7096 32.1476 25.7347 31.9748 25.794 31.8126C25.8534 31.6504 25.9458 31.5022 26.0653 31.3775C26.2011 31.235 26.3656 31.1228 26.5478 31.0482C26.7301 30.9737 26.926 30.9385 27.1228 30.945H32.9803C33.5884 30.9264 34.1899 31.0754 34.719 31.3757C35.2481 31.676 35.6844 32.1159 35.9803 32.6475C36.3949 33.4024 36.5693 34.2658 36.4803 35.1225C36.35 36.5733 35.7085 37.9307 34.6703 38.9525L34.6403 38.98C33.7884 39.6969 32.7457 40.1496 31.6403 40.2825C31.1253 40.2975 30.6228 40.305 30.1228 40.315L28.6228 40.3475H28.5928C28.1903 40.3125 27.6828 40.3875 27.5928 40.7225C27.5028 41.0575 27.4303 41.3325 27.3428 41.64C27.2553 41.9475 27.1878 42.265 27.0928 42.5825C27.0222 42.7609 26.9123 42.9209 26.7712 43.0508C26.63 43.1807 26.4614 43.277 26.2778 43.3325L26.2303 43.3525H26.1803L25.3178 43.365L24.4453 43.3775L24.4153 43.37ZM24.2478 42.82C24.3097 42.8366 24.3739 42.8425 24.4378 42.8375L25.3178 42.825H26.1228C26.3928 42.705 26.5478 42.575 26.5903 42.44C26.6778 42.1325 26.7528 41.8275 26.8403 41.52C26.9278 41.2125 26.9953 40.895 27.0903 40.58C27.2528 40.045 27.8403 39.7575 28.6428 39.83L30.1278 39.7975L31.6278 39.765C32.6232 39.6384 33.5608 39.2269 34.3278 38.58C35.2699 37.6504 35.8534 36.4179 35.9753 35.1C36.0567 34.3392 35.9012 33.5717 35.5303 32.9025C35.271 32.4613 34.8981 32.0977 34.4505 31.8497C34.0028 31.6017 33.4969 31.4783 32.9853 31.4925H27.1103C26.988 31.4876 26.866 31.5089 26.7526 31.555C26.6392 31.6012 26.5369 31.6711 26.4528 31.76C26.3804 31.834 26.325 31.9229 26.2905 32.0204C26.256 32.118 26.2431 32.2219 26.2528 32.325V32.3625V32.4C25.9661 33.8783 25.6778 35.3592 25.3878 36.8425C25.0328 38.6608 24.6786 40.4808 24.3253 42.3025L24.3003 42.42C24.2622 42.5549 24.2454 42.6949 24.2503 42.835L24.2478 42.82ZM29.3778 38.29C29.2903 38.29 29.2028 38.29 29.1128 38.29C28.9018 38.2951 28.6919 38.2582 28.4953 38.1814C28.2987 38.1046 28.1194 37.9894 27.9678 37.8425C27.7453 37.545 27.7653 37.15 27.8803 36.5225L27.9703 36.0225L27.9878 36.04C28.0753 35.5925 28.1703 35.1325 28.2578 34.7L28.4403 33.8425C28.544 33.5647 28.7339 33.3275 28.9823 33.1655C29.2306 33.0035 29.5243 32.9254 29.8203 32.9425C30.4516 32.9002 31.085 32.9852 31.6828 33.1925C31.9468 33.2872 32.1881 33.4359 32.3913 33.6292C32.5944 33.8225 32.755 34.0561 32.8628 34.315C32.9817 34.6267 33.0363 34.9593 33.0235 35.2927C33.0106 35.626 32.9304 35.9534 32.7878 36.255L32.7703 36.2875C32.5317 36.7324 32.2078 37.1259 31.817 37.4455C31.4262 37.7651 30.9762 38.0045 30.4928 38.15C30.1265 38.2372 29.7518 38.2842 29.3753 38.29H29.3778ZM28.3453 37.01C28.3062 37.1778 28.3247 37.354 28.3978 37.51C28.4853 37.625 28.7303 37.7 29.1678 37.7475C29.5684 37.7674 29.9697 37.726 30.3578 37.625C30.7733 37.4978 31.1596 37.2899 31.4946 37.0132C31.8296 36.7365 32.1068 36.3964 32.3103 36.0125C32.42 35.7792 32.482 35.5264 32.4927 35.2688C32.5035 35.0112 32.4627 34.7541 32.3728 34.5125C32.2918 34.3213 32.1719 34.1491 32.0209 34.0067C31.8698 33.8642 31.6909 33.7547 31.4953 33.685C30.9535 33.5023 30.3805 33.4301 29.8103 33.4725C29.6212 33.4569 29.4323 33.5051 29.2738 33.6093C29.1152 33.7135 28.996 33.8677 28.9353 34.0475L28.7828 34.7975C28.6628 35.3875 28.5328 36.03 28.4203 36.62L28.3453 37.01Z" fill="#FEFEFE"/>
<path d="M46.3627 42.235C47.0002 38.93 47.6502 35.625 48.2902 32.3325C48.2818 32.1829 48.3052 32.0332 48.3587 31.8933C48.4121 31.7533 48.4945 31.6262 48.6005 31.5203C48.7064 31.4143 48.8335 31.332 48.9735 31.2785C49.1134 31.225 49.2631 31.2017 49.4127 31.21H55.2827C55.842 31.1935 56.3952 31.3298 56.8828 31.6042C57.3705 31.8786 57.774 32.2808 58.0502 32.7675C58.4431 33.4791 58.6081 34.2941 58.5227 35.1025C58.397 36.4905 57.7821 37.7886 56.7877 38.765C55.9734 39.4526 54.9758 39.8871 53.9177 40.015C52.9177 40.04 51.9177 40.0525 50.9177 40.08C50.3427 40.03 49.7702 40.1825 49.6302 40.6425C49.4527 41.2675 49.3252 41.8925 49.1452 42.505C49.0827 42.6429 48.9912 42.7658 48.8768 42.865C48.7625 42.9643 48.628 43.0376 48.4827 43.08C47.9077 43.0925 47.3227 43.0925 46.7477 43.105C46.1327 43.115 46.2502 42.75 46.3627 42.235ZM50.4577 36.57C50.6227 35.7025 50.8277 34.72 50.9802 33.955C51.0616 33.7258 51.2149 33.5291 51.4171 33.3939C51.6193 33.2588 51.8598 33.1926 52.1027 33.205C52.7079 33.1621 53.3156 33.2402 53.8902 33.435C54.1417 33.5366 54.3689 33.6904 54.5565 33.8864C54.7441 34.0824 54.888 34.316 54.9785 34.5717C55.069 34.8275 55.1042 35.0996 55.0816 35.3699C55.0591 35.6403 54.9793 35.9028 54.8477 36.14C54.6253 36.5576 54.3227 36.9271 53.9572 37.2274C53.5917 37.5278 53.1704 37.7529 52.7177 37.89C52.3019 37.9986 51.8717 38.0416 51.4427 38.0175C50.3452 37.9025 50.2552 37.61 50.4427 36.5625L50.4577 36.57Z" fill="#373435"/>
<path d="M46.7171 43.37C46.6106 43.3806 46.5032 43.3669 46.4027 43.3301C46.3023 43.2933 46.2115 43.2343 46.1371 43.1575C45.9471 42.93 46.0121 42.6225 46.0796 42.2975L46.1021 42.185C46.4521 40.37 46.8046 38.5567 47.1596 36.745C47.4479 35.2683 47.7354 33.7933 48.0221 32.32C48.0113 32.1476 48.0364 31.9748 48.0958 31.8126C48.1552 31.6504 48.2475 31.5022 48.3671 31.3775C48.5029 31.235 48.6673 31.1228 48.8496 31.0482C49.0318 30.9737 49.2278 30.9385 49.4246 30.945H55.2821C55.8901 30.9264 56.4916 31.0754 57.0207 31.3757C57.5498 31.676 57.9862 32.1159 58.2821 32.6475C58.6965 33.4025 58.8709 34.2658 58.7821 35.1225C58.6515 36.5733 58.0101 37.9306 56.9721 38.9525L56.9421 38.98C56.0901 39.6969 55.0475 40.1496 53.9421 40.2825C53.4271 40.2975 52.9246 40.305 52.4246 40.315L50.9246 40.3475H50.8946C50.4896 40.3125 49.9846 40.3875 49.8946 40.7225C49.8046 41.0575 49.7321 41.3325 49.6446 41.6375C49.5571 41.9425 49.4896 42.265 49.3946 42.58C49.324 42.7583 49.2141 42.9184 49.0729 43.0483C48.9318 43.1782 48.7631 43.2745 48.5796 43.33L48.5321 43.35H48.4821L47.6196 43.3625L46.7471 43.375L46.7171 43.37ZM46.5496 42.82C46.6115 42.836 46.6757 42.8419 46.7396 42.8375L47.6196 42.825H48.4246C48.6946 42.705 48.8496 42.575 48.8921 42.44C48.9796 42.1325 49.0571 41.825 49.1421 41.52C49.2271 41.215 49.2971 40.8975 49.3921 40.5825C49.5546 40.0475 50.1421 39.76 50.9446 39.8325L52.4296 39.8L53.9296 39.7675C54.9249 39.6409 55.8625 39.2294 56.6296 38.5825C57.5717 37.6529 58.1552 36.4204 58.2771 35.1025C58.3586 34.3416 58.2032 33.5742 57.8321 32.905C57.5728 32.4638 57.1999 32.1002 56.7522 31.8522C56.3046 31.6042 55.7986 31.4808 55.2871 31.495H49.4121C49.2897 31.4897 49.1676 31.5109 49.0541 31.5571C48.9407 31.6032 48.8385 31.6733 48.7546 31.7625C48.6822 31.8365 48.6268 31.9254 48.5923 32.0229C48.5577 32.1205 48.5449 32.2244 48.5546 32.3275V32.365V32.4025C48.2662 33.8875 47.9771 35.375 47.6871 36.865C47.3337 38.6767 46.9812 40.49 46.6296 42.305L46.6046 42.4225C46.5665 42.5574 46.5496 42.6974 46.5546 42.8375L46.5496 42.82ZM51.6796 38.29C51.5921 38.29 51.5046 38.29 51.4146 38.29C51.2036 38.2951 50.9936 38.2582 50.7971 38.1814C50.6005 38.1046 50.4212 37.9894 50.2696 37.8425C50.0471 37.545 50.0671 37.15 50.1821 36.5225L50.2721 36.0225L50.2896 36.04C50.3771 35.59 50.4721 35.1275 50.5596 34.6925L50.7421 33.84C50.8447 33.5615 51.0344 33.3236 51.283 33.1615C51.5316 32.9993 51.8258 32.9217 52.1221 32.94C52.7533 32.8985 53.3866 32.9835 53.9846 33.19C54.2485 33.2847 54.4898 33.4334 54.693 33.6267C54.8962 33.82 55.0568 34.0536 55.1646 34.3125C55.2835 34.6242 55.3381 34.9568 55.3252 35.2902C55.3123 35.6235 55.2322 35.9509 55.0896 36.2525L55.0721 36.285C54.8335 36.7299 54.5095 37.1234 54.1187 37.443C53.7279 37.7626 53.278 38.002 52.7946 38.1475C52.4292 38.2354 52.0553 38.2832 51.6796 38.29ZM50.6446 37.0125C50.6054 37.1803 50.6239 37.3565 50.6971 37.5125C50.7846 37.6275 51.0296 37.7025 51.4671 37.75C51.8676 37.7698 52.2689 37.7285 52.6571 37.6275C53.0725 37.5003 53.4588 37.2924 53.7939 37.0157C54.1289 36.739 54.4061 36.3989 54.6096 36.015C54.7192 35.7817 54.7813 35.5289 54.792 35.2713C54.8027 35.0137 54.7619 34.7566 54.6721 34.515C54.591 34.3238 54.4712 34.1516 54.3201 34.0092C54.1691 33.8667 53.9901 33.7572 53.7946 33.6875C53.2528 33.5046 52.6798 33.4324 52.1096 33.475C51.9205 33.4599 51.7319 33.5082 51.5734 33.6123C51.4149 33.7165 51.2957 33.8705 51.2346 34.05L51.0821 34.8C50.9621 35.3925 50.8321 36.0375 50.7196 36.6275L50.6446 37.0125Z" fill="#FEFEFE"/>
<path d="M8.56231 57.265C8.26336 56.9779 8.0104 56.6466 7.81231 56.2825C7.50377 55.7207 7.35424 55.0854 7.37981 54.445C6.72981 43.3625 7.30231 33.67 10.8348 25.75C11.2673 24.78 11.3348 24.4875 12.2373 24.04C14.9945 23.0291 17.952 22.6864 20.8673 23.04C20.9573 22.79 21.1348 22.54 21.0573 22.29C18.4191 22.0788 15.7641 22.2898 13.1923 22.915C11.4423 23.195 9.73731 23.5025 9.31731 26.2825C5.78731 35.63 6.04231 44.4825 6.40981 53.18C6.40717 53.8074 6.50162 54.4315 6.68981 55.03C7.37731 57.2225 8.04231 57.1475 8.56481 57.2625L8.56231 57.265Z" fill="#EBEFFF"/>
<path d="M22.1196 55.8775C22.1196 53.57 21.9296 51.2625 21.9296 48.945C21.8362 47.6227 21.549 46.3213 21.0771 45.0825C20.5658 44.1813 19.9805 43.3242 19.3271 42.52C21.3135 46.2949 21.9318 50.6409 21.0771 54.82C21.4321 55.175 21.7496 55.5325 22.1196 55.8775Z" fill="#EBEFFF"/>
<path d="M22.3096 56.335L22.1321 56.2675C21.465 55.9809 20.8929 55.5111 20.4821 54.9125L20.3096 54.695H20.4721C20.5096 53.8675 20.4946 53.11 20.4721 52.375C20.4571 51.6 20.4396 50.8 20.4846 49.92V49.7725L20.6321 49.795C21.0399 49.8346 21.4252 50.0003 21.7344 50.2692C22.0436 50.5381 22.2612 50.8966 22.3571 51.295V51.315V51.335C22.3446 52.195 22.3346 52.96 22.3246 53.7225C22.3146 54.485 22.3046 55.2775 22.2921 56.1475L22.3096 56.335ZM20.7321 54.8C21.0757 55.2785 21.5259 55.6705 22.0471 55.945C22.0471 55.155 22.0671 54.445 22.0771 53.7175C22.0771 52.9675 22.0971 52.2 22.1096 51.35C22.0319 51.0292 21.8616 50.7385 21.6197 50.5139C21.3778 50.2894 21.0752 50.1411 20.7496 50.0875C20.7146 50.8975 20.7296 51.645 20.7496 52.37C20.7496 53.1375 20.7746 53.93 20.7321 54.8Z" fill="#373435"/>
<path d="M25.6299 59.1425C25.1085 58.9367 24.6693 58.5651 24.3799 58.085C24.2899 53.965 24.2124 49.835 24.1299 45.7125L24.7574 46.3375C24.8979 47.2061 24.9623 48.0852 24.9499 48.965L25.1424 49.465C25.1388 52.6971 25.3016 55.9272 25.6299 59.1425Z" fill="#EBEFFF"/>
<path d="M25.8379 60.0575L25.6629 60C24.9358 59.7441 24.3339 59.22 23.9804 58.535L23.9629 58.5V58.45C23.9629 57.0775 23.9879 55.6575 23.9879 54.2675V54.2325L24.0054 54.2025C24.3829 53.515 24.7079 53.0725 25.0629 53.1425C25.3404 53.1975 25.6529 53.52 25.8629 55.48C25.8629 56.9375 25.8379 58.4225 25.8379 59.875V60.0575ZM24.2304 58.4325C24.5255 58.9876 24.9982 59.4277 25.5729 59.6825C25.5729 58.29 25.5854 56.8725 25.5979 55.4975C25.4029 53.675 25.1229 53.425 25.0129 53.4025C24.9029 53.38 24.6879 53.52 24.2629 54.3C24.2504 55.675 24.2504 57.0775 24.2304 58.435V58.4325Z" fill="#373435"/>
<path d="M21.2502 45.1425C21.2579 44.9305 21.2274 44.7188 21.1602 44.5175C21.2627 44.5425 21.3652 44.555 21.4652 44.5825L23.0827 45.8975C23.3079 45.802 23.4872 45.6227 23.5827 45.3975C23.6849 45.3959 23.7863 45.4176 23.8789 45.4609C23.9716 45.5042 24.0533 45.568 24.1177 45.6475C24.1427 46.695 24.0677 47.7275 24.0927 48.7725C24.2605 48.9157 24.3692 49.1162 24.3977 49.335C25.0674 49.3618 25.7351 49.4261 26.3977 49.5275C26.4352 49.6925 26.4877 49.795 26.5252 49.9625C25.7775 49.8787 25.0228 49.8787 24.2752 49.9625V50.435C24.8615 50.4049 25.4493 50.4478 26.0252 50.5625C26.0502 50.7025 26.0627 50.7675 26.0877 50.9075C25.4651 50.8329 24.8355 50.8413 24.2152 50.9325C24.2927 53.51 24.3177 56.0625 24.2152 58.6525C24.0102 58.1675 23.6177 57.695 23.4002 57.21C23.7884 53.9104 23.8394 50.5799 23.5527 47.27C22.9595 46.3927 22.1715 45.6646 21.2502 45.1425Z" fill="#373435"/>
<path d="M23.8602 58.81C23.7494 58.5717 23.6198 58.3427 23.4727 58.125C23.3133 57.8855 23.1713 57.6348 23.0477 57.375L23.0002 57.2725L23.0152 57.16C23.3941 53.9235 23.446 50.657 23.1702 47.41C22.6056 46.6257 21.8792 45.9718 21.0402 45.4925L20.8152 45.3475L20.8652 45.0825C20.8661 44.9865 20.8509 44.891 20.8202 44.8C20.8027 44.7325 20.7877 44.6675 20.7752 44.6025L20.6602 43.99L21.2652 44.14L21.3952 44.1675C21.4527 44.1675 21.5127 44.19 21.5702 44.205L21.6552 44.2275L23.1152 45.4125C23.1579 45.3729 23.1912 45.3242 23.2127 45.27L23.3102 45.02H23.5877C23.7549 45.0187 23.92 45.0568 24.0698 45.131C24.2196 45.2053 24.3499 45.3137 24.4502 45.4475L24.5177 45.545V45.665C24.5302 46.1975 24.5177 46.7325 24.5052 47.2475C24.5052 47.705 24.4827 48.1775 24.4902 48.6425C24.5765 48.7413 24.6489 48.8515 24.7052 48.97C25.1202 48.9875 25.5302 49.0425 25.9302 49.0925L26.4452 49.155L26.7252 49.1875L26.7877 49.4625C26.8021 49.5234 26.8196 49.5834 26.8402 49.6425C26.8652 49.72 26.8927 49.8 26.9152 49.8925L27.0377 50.4225L26.4952 50.38H26.3977L26.5802 51.38L26.0527 51.325C25.5804 51.2708 25.1039 51.2633 24.6302 51.3025C24.7102 54.1525 24.7052 56.5075 24.6302 58.6875L23.8602 58.81ZM23.8252 57.15L23.8727 57.24C23.8727 57.06 23.8727 56.8775 23.8727 56.6925C23.861 56.8458 23.8452 56.9983 23.8252 57.15ZM23.2877 46.25C23.4458 46.4188 23.592 46.5984 23.7252 46.7875C23.7252 46.5 23.7252 46.21 23.7252 45.9225C23.5999 46.0567 23.4517 46.1676 23.2877 46.25Z" fill="#373435"/>
<path d="M22.8027 22.41C23.9561 22.2585 25.0673 21.8768 26.0702 21.2875C28.0588 20.174 30.2768 19.5325 32.5527 19.4125C31.6111 18.9872 30.5518 18.899 29.5527 19.1625C27.0993 19.758 24.7992 20.8646 22.8027 22.41Z" fill="#EBEFFF"/>
<path d="M35.2852 21.025C40.7596 19.449 46.5999 19.7125 51.9102 21.775C46.6898 19.4809 40.8314 19.0856 35.3502 20.6575C35.3477 20.9125 35.2852 20.785 35.2852 21.025Z" fill="#EBEFFF"/>
<defs>
<linearGradient id="paint0_linear_824_12" x1="21.0974" y1="15.6536" x2="37.0367" y2="68.7339" gradientUnits="userSpaceOnUse">
<stop stop-color="#8A9FE0"/>
<stop offset="0.588" stop-color="#7182B8"/>
<stop offset="1" stop-color="#576490"/>
</linearGradient>
</defs>
</svg>
