<svg width="80" height="80" viewBox="0 0 80 80" fill="none" xmlns="http://www.w3.org/2000/svg">
<g clip-path="url(#clip0_822_2)">
<path d="M71.6673 31.6824C71.6673 14.1848 57.4827 0.000245574 39.9852 0.000245574C24.3901 -0.0217472 11.1 11.3123 8.65962 26.7153C6.21924 42.1182 15.355 57.0053 30.1931 61.805V77.6795C30.1931 78.91 31.1906 79.9075 32.4211 79.9075H47.4601C48.6906 79.9075 49.6881 78.91 49.6881 77.6795V61.8162C62.775 57.6022 71.6525 45.4311 71.6673 31.6824ZM39.9852 42.388C34.0696 42.388 29.274 37.5924 29.274 31.6769C29.274 25.7613 34.0696 20.9657 39.9852 20.9657C45.9007 20.9657 50.6963 25.7613 50.6963 31.6769C50.6963 37.5924 45.9007 42.388 39.9852 42.388Z" fill="#2684FF"/>
<path d="M39.9854 -2.78362e-05V20.9766C45.9009 20.9766 50.6965 25.7722 50.6965 31.6878C50.6965 37.6033 45.9009 42.3989 39.9854 42.3989C42.5824 42.3989 45.073 43.4305 46.9094 45.2669C48.7458 47.1033 49.7774 49.5939 49.7774 52.1909V61.827C64.621 57.0265 73.7608 42.1347 71.3204 26.7262C68.88 11.3177 55.5859 -0.0211224 39.9854 -2.78362e-05Z" fill="url(#paint0_linear_822_2)"/>
</g>
<defs>
<linearGradient id="paint0_linear_822_2" x1="1624.09" y1="5609" x2="1624.09" y2="2243.6" gradientUnits="userSpaceOnUse">
<stop offset="0.18" stop-color="#0052CC"/>
<stop offset="1" stop-color="#2684FF"/>
</linearGradient>
<clipPath id="clip0_822_2">
<rect width="80" height="80" fill="white"/>
</clipPath>
</defs>
</svg>
