<svg width="80" height="80" viewBox="0 0 80 80" fill="none" xmlns="http://www.w3.org/2000/svg">
<path d="M71.72 5H8.28C6.46851 5 5 6.46851 5 8.28V71.72C5 73.5315 6.46851 75 8.28 75H71.72C73.5315 75 75 73.5315 75 71.72V8.28C75 6.46851 73.5315 5 71.72 5Z" fill="#3178C6"/>
<path fill-rule="evenodd" clip-rule="evenodd" d="M45.6122 59.3975V67.0675C47.0058 67.7553 48.491 68.2394 50.0222 68.505C51.7917 68.8317 53.5879 68.9924 55.3872 68.985C57.1409 68.9933 58.8906 68.8165 60.6072 68.4575C62.1484 68.1461 63.6189 67.5528 64.9447 66.7075C66.1756 65.913 67.19 64.8255 67.8972 63.5425C69.1638 60.8858 69.3309 57.8367 68.3622 55.0575C67.9535 54.0182 67.3444 53.0694 66.5697 52.265C65.7382 51.4097 64.7936 50.672 63.7622 50.0725C62.5748 49.3771 61.3411 48.764 60.0697 48.2375C59.0697 47.8225 58.1697 47.4192 57.3697 47.0275C56.6592 46.6873 55.9792 46.2867 55.3372 45.83C54.8344 45.4775 54.3978 45.0391 54.0472 44.535C53.7444 44.0773 53.5867 43.5388 53.5947 42.99C53.5881 42.4849 53.7288 41.9888 53.9997 41.5625C54.294 41.1163 54.6865 40.7435 55.1472 40.4725C55.7104 40.1409 56.3232 39.902 56.9622 39.765C57.7467 39.5907 58.5486 39.5068 59.3522 39.515C60.0281 39.5173 60.703 39.5658 61.3722 39.66C62.095 39.7577 62.81 39.9056 63.5122 40.1025C64.2265 40.3005 64.9251 40.5512 65.6022 40.8525C66.2593 41.1454 66.8878 41.4986 67.4797 41.9075V34.75C66.2475 34.2838 64.9696 33.9486 63.6672 33.75C62.0945 33.5212 60.5065 33.4133 58.9172 33.4275C57.18 33.4181 55.4479 33.6154 53.7572 34.015C52.2291 34.3642 50.7761 34.9849 49.4672 35.8475C48.2514 36.6574 47.2475 37.747 46.5397 39.025C45.7897 40.4442 45.4185 42.0329 45.4622 43.6375C45.4068 45.7595 46.1058 47.8323 47.4347 49.4875C49.0652 51.3227 51.1212 52.7297 53.4222 53.585C54.4722 54.0183 55.4514 54.4425 56.3597 54.8575C57.1793 55.2222 57.967 55.6545 58.7147 56.15C59.3178 56.5423 59.8475 57.0373 60.2797 57.6125C60.6598 58.1342 60.8614 58.7646 60.8547 59.41C60.8582 59.8937 60.734 60.3697 60.4947 60.79C60.2289 61.2417 59.8552 61.6205 59.4072 61.8925C58.8466 62.2343 58.2334 62.4809 57.5922 62.6225C56.7571 62.8092 55.9029 62.8973 55.0472 62.885C53.368 62.8819 51.7022 62.5858 50.1247 62.01C48.4768 61.4153 46.9485 60.5305 45.6122 59.3975ZM32.7272 40.3025H42.7272V33.985H14.8447V40.3025H24.7997V68.4375H32.7272V40.3025Z" fill="white"/>
</svg>
