<svg width="80" height="80" viewBox="0 0 80 80" fill="none" xmlns="http://www.w3.org/2000/svg">
<path d="M7.42461 16.0938H72.5427C76.664 16.0938 79.9999 19.4297 79.9999 23.5509V48.4075C79.9999 52.5287 76.664 55.8647 72.5427 55.8647H49.1905L52.3959 63.7141L38.2993 55.8647H7.45711C3.33618 55.8647 0.000240023 52.5287 0.000240023 48.4075V23.5509C-0.0325725 19.4625 3.30305 16.0938 7.42461 16.0938Z" fill="#9B5C8F"/>
<path d="M4.55578 22.8906C5.0111 22.2725 5.69391 21.9475 6.60453 21.8825C8.26328 21.7522 9.20641 22.5325 9.43391 24.2237C10.442 31.0206 11.5477 36.7769 12.7183 41.4922L19.8402 27.9312C20.4908 26.6953 21.3039 26.045 22.2795 25.98C23.7105 25.8825 24.5883 26.7928 24.9461 28.7116C25.7592 33.0366 26.7998 36.7116 28.0355 39.8334C28.8811 31.5734 30.312 25.6222 32.3283 21.9475C32.8158 21.0369 33.5314 20.5816 34.4745 20.5162C35.2227 20.4516 35.9055 20.6791 36.5233 21.1669C37.1411 21.6547 37.4664 22.2725 37.5314 23.0206C37.5639 23.6059 37.4664 24.0937 37.2064 24.5816C35.938 26.9231 34.897 30.8581 34.0517 36.3212C33.2389 41.6222 32.9461 45.7525 33.1411 48.7119C33.2064 49.5244 33.0761 50.24 32.7511 50.8581C32.3605 51.5734 31.7755 51.9637 31.0273 52.0287C30.1817 52.0937 29.3039 51.7037 28.4583 50.8256C25.4339 47.7359 23.0273 43.1181 21.2714 36.9719C19.1573 41.1344 17.5964 44.2562 16.5883 46.3375C14.6695 50.0125 13.0436 51.8987 11.6777 51.9962C10.7995 52.0612 10.0517 51.3131 9.40141 49.7525C7.74297 45.4922 5.95422 37.2644 4.03578 25.0694C3.90547 24.2237 4.10047 23.4756 4.55578 22.8906ZM74.442 27.9962C73.2714 25.9475 71.5477 24.7119 69.2389 24.2237C68.6208 24.0937 68.0358 24.0287 67.4827 24.0287C64.3608 24.0287 61.8242 25.6547 59.8405 28.9069C58.1492 31.6709 57.3039 34.7278 57.3039 38.0775C57.3039 40.5816 57.8242 42.7278 58.8648 44.5166C60.0355 46.5653 61.7592 47.8009 64.068 48.2887C64.6858 48.4191 65.2711 48.4841 65.8242 48.4841C68.9786 48.4841 71.5152 46.8581 73.4664 43.6059C75.1573 40.8091 76.003 37.7522 76.003 34.4028C76.0355 31.8662 75.4827 29.7522 74.442 27.9962ZM70.3445 37.0044C69.8892 39.1506 69.0761 40.7441 67.8727 41.8172C66.9298 42.6628 66.0517 43.0203 65.2389 42.8578C64.4583 42.6953 63.8077 42.0125 63.3202 40.7441C62.9295 39.7359 62.7348 38.7278 62.7348 37.7847C62.7348 36.9719 62.7998 36.1587 62.9623 35.4109C63.2552 34.0775 63.808 32.7766 64.6858 31.5409C65.7592 29.9472 66.8973 29.2972 68.068 29.5247C68.8486 29.6872 69.4992 30.3703 69.9867 31.6384C70.377 32.6466 70.572 33.6547 70.572 34.5978C70.572 35.4434 70.507 36.2566 70.3445 37.0044ZM54.0842 27.9962C52.9136 25.9475 51.1573 24.7119 48.8811 24.2237C48.2633 24.0937 47.678 24.0287 47.1248 24.0287C44.003 24.0287 41.4664 25.6547 39.4827 28.9069C37.7917 31.6709 36.9461 34.7278 36.9461 38.0775C36.9461 40.5816 37.4664 42.7278 38.507 44.5166C39.6777 46.5653 41.4014 47.8009 43.7102 48.2887C44.3283 48.4191 44.9133 48.4841 45.4664 48.4841C48.6208 48.4841 51.1573 46.8581 53.1086 43.6059C54.7998 40.8091 55.6452 37.7522 55.6452 34.4028C55.6452 31.8662 55.1248 29.7522 54.0842 27.9962ZM49.9542 37.0044C49.4989 39.1506 48.6858 40.7441 47.4827 41.8172C46.5395 42.6628 45.6614 43.0203 44.8483 42.8578C44.068 42.6953 43.4177 42.0125 42.9295 40.7441C42.5395 39.7359 42.3445 38.7278 42.3445 37.7847C42.3445 36.9719 42.4095 36.1587 42.572 35.4109C42.8648 34.0775 43.4177 32.7766 44.2958 31.5409C45.3689 29.9472 46.507 29.2972 47.6777 29.5247C48.4583 29.6872 49.1089 30.3703 49.5964 31.6384C49.987 32.6466 50.1817 33.6547 50.1817 34.5978C50.2145 35.4434 50.1167 36.2566 49.9542 37.0044Z" fill="white"/>
</svg>
