<svg width="80" height="80" viewBox="0 0 80 80" fill="none" xmlns="http://www.w3.org/2000/svg">
<path d="M5 30.3332C5 21.4658 5 17.0321 6.72572 13.6451C8.24373 10.6659 10.6659 8.24373 13.6451 6.72572C17.0321 5 21.4658 5 30.3332 5H49.6667C58.5342 5 62.968 5 66.3548 6.72572C69.334 8.24373 71.7562 10.6659 73.2743 13.6451C75 17.0321 75 21.4658 75 30.3332V49.6667C75 58.5342 75 62.968 73.2743 66.3548C71.7562 69.334 69.334 71.7562 66.3548 73.2743C62.968 75 58.5342 75 49.6667 75H30.3332C21.4658 75 17.0321 75 13.6451 73.2743C10.6659 71.7562 8.24373 69.334 6.72572 66.3548C5 62.968 5 58.5342 5 49.6667V30.3332Z" fill="#470137"/>
<path d="M41.6163 25.5845L32.882 40.3705L42.2265 56.0712C42.4208 56.4272 42.2265 56.506 41.945 56.506H35.277C34.8073 56.506 34.4785 56.489 34.2908 56.1678C33.664 54.9155 33.038 53.6713 32.4123 52.435C31.7858 51.1993 31.1205 49.939 30.4168 48.6543C29.7123 47.3705 29.0158 46.0703 28.327 44.7533C27.7005 46.0378 27.0038 47.322 26.3313 48.6062C25.6578 49.8907 24.9925 51.167 24.3355 52.435C23.6782 53.7038 23.0051 54.964 22.3164 56.2158C22.1909 56.5048 21.9715 56.5345 21.6588 56.5345H15.2257C14.9729 56.5345 14.9424 56.3445 15.0848 56.1195L24.1477 40.852L15.3195 25.5363C15.1592 25.3178 15.2972 25.085 15.5544 25.1027H22.1754C22.4621 25.0867 22.7155 25.1947 22.8798 25.44C23.4433 26.7245 24.0694 28.009 24.7581 29.293C25.4463 30.5775 26.143 31.846 26.8478 33.0978C27.5523 34.35 28.2488 35.6183 28.8435 36.9028C29.4693 35.5865 30.1033 34.3023 30.7453 33.0498C31.3868 31.7975 32.044 30.5372 32.7175 29.269C33.3905 28.001 34.04 26.7408 34.6663 25.4883C34.7495 25.2135 34.9485 25.0742 35.2298 25.1027H41.3813C41.6163 25.1027 41.7133 25.4235 41.6163 25.5845Z" fill="#FF61F6"/>
<path d="M55.0924 57.1313C50.9511 57.196 46.6134 55.4907 44.4329 51.713C43.3684 49.8992 42.8361 47.6277 42.8364 44.898C42.8186 42.6875 43.3694 40.5113 44.4329 38.5888C47.1771 33.6833 52.7056 31.8452 57.9569 32.3277V22.8397C57.9569 22.6154 58.0509 22.5025 58.2386 22.5025H64.1554C64.3171 22.4788 64.4601 22.6256 64.4371 22.7915V51.2555C64.4371 52.4297 64.5536 53.6 64.6251 54.7713C64.6366 54.9713 64.5209 55.1693 64.3431 55.253C61.4199 56.5035 58.2566 57.1168 55.0924 57.1313ZM57.9569 51.159V38.0107C53.6679 36.8192 49.5039 40.086 49.5044 44.609C49.4026 49.2852 53.4336 52.516 57.9569 51.159Z" fill="#FF61F6"/>
</svg>
