<svg width="80" height="80" viewBox="0 0 80 80" fill="none" xmlns="http://www.w3.org/2000/svg">
<path d="M5 30.3332C5 21.4658 5 17.0321 6.72572 13.6451C8.24373 10.6659 10.6659 8.24373 13.6451 6.72572C17.0321 5 21.4658 5 30.3332 5H49.6667C58.5342 5 62.968 5 66.3548 6.72572C69.334 8.24373 71.7562 10.6659 73.2743 13.6451C75 17.0321 75 21.4658 75 30.3332V49.6667C75 58.5342 75 62.968 73.2743 66.3548C71.7562 69.334 69.334 71.7562 66.3548 73.2743C62.968 75 58.5342 75 49.6667 75H30.3332C21.4658 75 17.0321 75 13.6451 73.2743C10.6659 71.7562 8.24373 69.334 6.72572 66.3548C5 62.968 5 58.5342 5 49.6667V30.3332Z" fill="#330000"/>
<path d="M38.9215 48.9908H28.0742L25.8672 56.0225C25.806 56.2838 25.5655 56.4688 25.3037 56.4558H19.8096C19.4963 56.4558 19.3867 56.2793 19.4809 55.926L28.8725 28.1845C28.9665 27.8955 29.0605 27.5665 29.1542 27.1973C29.2772 26.5545 29.34 25.9015 29.3422 25.2468C29.3152 25.0533 29.4852 24.8824 29.6707 24.9095H37.1372C37.356 24.9095 37.481 24.9898 37.5127 25.1503L48.1725 55.9743C48.2662 56.2955 48.1725 56.456 47.8907 56.4558H41.786C41.572 56.4803 41.3675 56.3335 41.3165 56.1188L38.9215 48.9908ZM29.7647 42.9223H37.1842C35.9652 38.7568 34.5895 34.646 33.4745 30.4483C32.2715 34.6533 30.959 38.8413 29.7647 42.9223Z" fill="#FF9A00"/>
<path d="M54.5116 30.0145C54.0326 30.0343 53.5551 29.95 53.1098 29.7675C52.6648 29.585 52.2623 29.308 51.9288 28.955C51.5963 28.5865 51.3378 28.1545 51.1686 27.6833C50.9993 27.2123 50.9226 26.7115 50.9426 26.2098C50.9256 25.713 51.0108 25.2183 51.1928 24.7576C51.3751 24.297 51.6498 23.881 51.9993 23.5367C52.3453 23.196 52.7538 22.929 53.2013 22.7513C53.6486 22.5736 54.1258 22.4886 54.6053 22.5012C55.7326 22.5012 56.6168 22.8464 57.2586 23.5367C57.5826 23.8955 57.8343 24.3162 57.9996 24.7749C58.1646 25.2335 58.2401 25.7213 58.2211 26.2098C58.2408 26.7133 58.1616 27.216 57.9881 27.6875C57.8148 28.159 57.5506 28.59 57.2116 28.955C56.8573 29.3133 56.4343 29.5923 55.9698 29.7748C55.5051 29.957 55.0086 30.0388 54.5116 30.0145ZM51.2713 55.974V32.9525C51.2713 32.6635 51.3961 32.519 51.6471 32.519H57.4231C57.6731 32.519 57.7983 32.6635 57.7986 32.9525V55.974C57.7986 56.2955 57.6733 56.456 57.4231 56.4558H51.6941C51.4123 56.4558 51.2713 56.2953 51.2713 55.974Z" fill="#FF9A00"/>
</svg>
