<svg width="49" height="34" viewBox="0 0 49 34" fill="none" xmlns="http://www.w3.org/2000/svg">
<circle cx="24.225" cy="15.725" r="11.475" fill="#2D6C80"/>
<path d="M30.3086 19.416C30.4434 19.457 30.5928 19.4775 30.7568 19.4775C30.9268 19.4775 31.1172 19.4336 31.3281 19.3457C31.4395 19.4219 31.5303 19.5244 31.6006 19.6533C31.6709 19.7764 31.7061 19.8848 31.7061 19.9785C31.7061 20.0723 31.668 20.207 31.5918 20.3828C31.5215 20.5586 31.4189 20.7373 31.2842 20.9189C31.1494 21.0947 30.9854 21.2646 30.792 21.4287C30.6045 21.5928 30.3965 21.7393 30.168 21.8682C29.3125 22.3545 28.3867 22.4277 27.3906 22.0879C26.5645 21.8125 25.9756 21.2441 25.624 20.3828C25.4482 19.9375 25.3604 19.46 25.3604 18.9502C25.3604 18.4346 25.4365 17.9834 25.5889 17.5967C25.7471 17.21 25.9521 16.832 26.2041 16.4629C26.4561 16.0879 26.7432 15.7246 27.0654 15.373C27.3877 15.0156 27.7158 14.667 28.0498 14.3271C28.3838 13.9873 28.7119 13.6562 29.0342 13.334C29.3564 13.0117 29.6436 12.6953 29.8955 12.3848C30.458 11.6992 30.7393 11.1162 30.7393 10.6357C30.7393 10.0264 30.4697 9.63672 29.9307 9.4668C29.7725 9.41992 29.5322 9.39648 29.21 9.39648C28.8877 9.39648 28.4834 9.50781 27.9971 9.73047C27.5166 9.95312 27.0361 10.2578 26.5557 10.6445C26.0811 11.0312 25.6152 11.4854 25.1582 12.0068C24.7012 12.5283 24.2676 13.0908 23.8574 13.6943C23.4531 14.2979 23.084 14.9248 22.75 15.5752C21.7656 17.4971 21.2734 19.1758 21.2734 20.6113C21.2734 20.7754 21.2793 20.9336 21.291 21.0859C21.1211 21.2793 20.8252 21.4785 20.4033 21.6836C19.624 22.0527 19.1318 22.2373 18.9268 22.2373C18.7275 22.2373 18.5576 22.1963 18.417 22.1143C18.2764 22.0381 18.1475 21.9209 18.0303 21.7627C17.7549 21.4053 17.6172 20.9512 17.6172 20.4004C17.6172 19.8438 17.7051 19.2666 17.8809 18.6689C18.0625 18.0713 18.2881 17.459 18.5576 16.832C18.8271 16.2051 19.1172 15.5781 19.4277 14.9512C19.7383 14.3184 20.0283 13.709 20.2979 13.123C20.9248 11.7578 21.2383 10.75 21.2383 10.0996C21.2383 9.53125 21.2002 9.15039 21.124 8.95703C20.9775 8.60547 20.7666 8.42383 20.4912 8.41211C20.5088 8.01953 20.7197 7.82324 21.124 7.82324C21.5283 7.82324 21.8711 7.97266 22.1523 8.27148C22.5801 8.7168 22.7939 9.39648 22.7939 10.3105C22.7939 11.3711 22.5156 12.543 21.959 13.8262C23.3477 12.0742 24.6104 10.7617 25.7471 9.88867C27.1182 8.83398 28.416 8.30664 29.6406 8.30664C30.8125 8.30664 31.5742 8.76953 31.9258 9.69531C32.043 10.0059 32.1016 10.3779 32.1016 10.8115C32.1016 11.2393 32.04 11.6523 31.917 12.0508C31.7998 12.4492 31.6475 12.8389 31.46 13.2197C31.2783 13.5947 31.082 13.9697 30.8711 14.3447C30.6602 14.7197 30.4639 15.1123 30.2822 15.5225C29.8545 16.4658 29.6406 17.4092 29.6406 18.3525C29.6406 18.915 29.8633 19.2695 30.3086 19.416Z" fill="white"/>
</svg>
