<svg width="80" height="80" viewBox="0 0 80 80" fill="none" xmlns="http://www.w3.org/2000/svg">
<path fill-rule="evenodd" clip-rule="evenodd" d="M40 5C46.9223 5 53.6892 7.05271 59.445 10.8986C65.2007 14.7444 69.6867 20.2107 72.3358 26.6061C74.9848 33.0015 75.678 40.0388 74.3275 46.8282C72.977 53.6175 69.6436 59.8539 64.7487 64.7487C59.8539 69.6436 53.6175 72.977 46.8282 74.3275C40.0388 75.678 33.0015 74.9848 26.6061 72.3358C20.2107 69.6867 14.7444 65.2007 10.8986 59.445C7.05271 53.6892 5 46.9223 5 40C5 30.7174 8.68749 21.815 15.2513 15.2513C21.815 8.68749 30.7174 5 40 5Z" fill="#CC6699"/>
<path d="M61.955 19.98C60.37 13.765 50.0625 11.73 40.3075 15.185C34.1983 17.2379 28.5539 20.4755 23.6975 24.7125C18.325 29.7375 17.4675 34.1125 17.82 35.94C19.07 42.39 27.9025 46.605 31.535 49.7325V49.75C30.465 50.2775 22.625 54.25 20.785 58.3C18.85 62.58 21.0925 65.65 22.58 66.0625C24.8133 66.6002 27.1589 66.4252 29.2877 65.5621C31.4165 64.699 33.2217 63.1911 34.45 61.25C35.4651 59.6773 36.1002 57.8899 36.305 56.0292C36.5099 54.1686 36.2787 52.2859 35.63 50.53C37.3797 50.0854 39.1984 49.981 40.9875 50.2225C47.1275 50.94 48.3325 54.7725 48.1025 56.3775C47.9943 56.9488 47.7644 57.4901 47.4283 57.9647C47.0923 58.4392 46.658 58.8358 46.155 59.1275C45.725 59.395 45.5925 59.485 45.63 59.685C45.6825 59.9725 45.88 59.9625 46.2475 59.9C47.1702 59.6094 47.9832 59.0461 48.5794 58.2843C49.1756 57.5225 49.5271 56.598 49.5875 55.6325C49.735 51.8825 46.1325 47.6675 39.7525 47.775C37.8995 47.7221 36.0504 47.9755 34.28 48.525C34.1925 48.425 34.1025 48.325 34.01 48.225C30.065 44.0175 22.775 41.04 23.0825 35.3825C23.195 33.325 23.91 27.91 37.0825 21.34C47.8825 15.9575 56.5275 17.44 58.0225 20.7225C60.1575 25.4125 53.4025 34.125 42.1875 35.3825C40.9479 35.6341 39.6676 35.6035 38.4415 35.2927C37.2155 34.982 36.0751 34.3992 35.105 33.5875C34.515 32.9375 34.4275 32.91 34.2075 33.03C33.85 33.2275 34.0775 33.8025 34.2075 34.1425C34.6369 34.9164 35.2166 35.5968 35.9125 36.1438C36.6084 36.6907 37.4065 37.0931 38.26 37.3275C42.6694 38.2856 47.2686 37.8308 51.405 36.0275C58.2075 33.405 63.5125 26.0925 61.955 19.98ZM33.045 51.6575C33.5415 53.3692 33.5163 55.1902 32.9725 56.8875C32.9142 57.0642 32.85 57.2392 32.78 57.4125C32.71 57.5858 32.6342 57.7525 32.5525 57.9125C32.1318 58.7733 31.5868 59.5677 30.935 60.27C28.9025 62.4875 26.06 63.3275 24.8425 62.62C23.5275 61.8575 24.185 58.73 26.5425 56.2375C28.354 54.4462 30.4424 52.9588 32.7275 51.8325L33.045 51.6575Z" fill="white"/>
</svg>
