<svg width="80" height="80" viewBox="0 0 80 80" fill="none" xmlns="http://www.w3.org/2000/svg">
<path d="M40 75C59.33 75 75 59.33 75 40C75 20.67 59.33 5 40 5C20.67 5 5 20.67 5 40C5 59.33 20.67 75 40 75Z" fill="#028CB0"/>
<path d="M16.1384 40C16.1384 49.4557 21.6384 57.6 29.5922 61.4712L18.2115 30.2905C16.8449 33.345 16.1385 36.6537 16.1384 40ZM40 63.8615C42.7713 63.8615 45.4365 63.375 47.9327 62.5077L47.7635 62.1905L40.423 42.0942L33.273 62.8885C35.3885 63.523 37.652 63.8615 40 63.8615ZM43.2788 28.8095L51.9095 54.4693L54.3 46.5155C55.3155 43.2155 56.098 40.8463 56.098 38.7943C56.098 35.8328 55.0405 33.802 54.152 32.2365C52.925 30.248 51.8038 28.577 51.8038 26.6307C51.8038 24.4308 53.4538 22.4 55.823 22.4H56.1193C51.7225 18.3637 45.9685 16.1285 40 16.1384C36.048 16.1377 32.158 17.1194 28.6795 18.9952C25.2012 20.8711 22.2437 23.5821 20.0731 26.8845L21.5962 26.927C24.0923 26.927 27.9422 26.6095 27.9422 26.6095C29.2537 26.5462 29.402 28.4288 28.1115 28.577C28.1115 28.577 26.8212 28.7462 25.3615 28.8095L34.077 54.6595L39.302 39.0057L35.5787 28.8095C34.745 28.7635 33.9125 28.693 33.0827 28.598C31.7922 28.5135 31.9405 26.5462 33.2308 26.6095C33.2308 26.6095 37.1655 26.927 39.5135 26.927C42.0095 26.927 45.8595 26.6095 45.8595 26.6095C47.15 26.5462 47.3193 28.4288 46.0288 28.577C46.0288 28.577 44.7385 28.725 43.2788 28.8095ZM51.9943 60.625C55.604 58.526 58.5997 55.5165 60.6822 51.8972C62.7647 48.278 63.861 44.1758 63.8615 40C63.8615 35.8538 62.8037 31.9615 60.9422 28.5558C61.3202 32.3028 60.753 36.0847 59.2922 39.5557L51.9943 60.625ZM40 67.5C32.7065 67.5 25.7118 64.6028 20.5546 59.4455C15.3973 54.2883 12.5 47.2935 12.5 40C12.5 32.7065 15.3973 25.7118 20.5546 20.5546C25.7118 15.3973 32.7065 12.5 40 12.5C47.2935 12.5 54.2883 15.3973 59.4455 20.5546C64.6028 25.7118 67.5 32.7065 67.5 40C67.5 47.2935 64.6028 54.2883 59.4455 59.4455C54.2883 64.6028 47.2935 67.5 40 67.5Z" fill="white"/>
</svg>
